<?xml version="1.0"?>
<svg xmlns="http://www.w3.org/2000/svg" xmlns:xlink="http://www.w3.org/1999/xlink" xmlns:ev="http://www.w3.org/2001/xml-events" version="1.1" baseProfile="full" viewBox="33.5 33.5 867 829">
	<g>
		<g>
			<path fill="none" d=" M282,78 L282,120" stroke="#FF0000" stroke-width="0.400000px" />
		</g>
		<g>
			<path fill="none" d=" M282,78 L292,40" stroke="#FF0000" stroke-width="0.400000px" />
		</g>
		<g>
			<path fill="none" d=" M354,482 L328,408" stroke="#FF0000" stroke-width="0.400000px" />
		</g>
		<g>
			<path fill="none" d=" M354,482 L400,536" stroke="#FF0000" stroke-width="0.400000px" />
		</g>
		<g>
			<path fill="none" d=" M710,664 L730,732" stroke="#FF0000" stroke-width="0.400000px" />
		</g>
		<g>
			<path fill="none" d=" M710,664 L710,586" stroke="#FF0000" stroke-width="0.400000px" />
		</g>
		<g>
			<path fill="none" d=" M710,664 L748,702" stroke="#FF0000" stroke-width="0.400000px" />
		</g>
		<g>
			<path fill="none" d=" M710,664 L648,668" stroke="#FF0000" stroke-width="0.400000px" />
		</g>
		<g>
			<path fill="none" d=" M132,396 L92,424" stroke="#FF0000" stroke-width="0.400000px" />
		</g>
		<g>
			<path fill="none" d=" M132,396 L96,342" stroke="#FF0000" stroke-width="0.400000px" />
		</g>
		<g>
			<path fill="none" d=" M132,396 L188,432" stroke="#FF0000" stroke-width="0.400000px" />
		</g>
		<g>
			<path fill="none" d=" M582,644 L516,618" stroke="#FF0000" stroke-width="0.400000px" />
		</g>
		<g>
			<path fill="none" d=" M582,644 L548,606" stroke="#FF0000" stroke-width="0.400000px" />
		</g>
		<g>
			<path fill="none" d=" M582,644 L648,668" stroke="#FF0000" stroke-width="0.400000px" />
		</g>
		<g>
			<path fill="none" d=" M548,606 L538,546" stroke="#FF0000" stroke-width="0.400000px" />
		</g>
		<g>
			<path fill="none" d=" M304,334 L328,408" stroke="#FF0000" stroke-width="0.400000px" />
		</g>
		<g>
			<path fill="none" d=" M304,334 L268,312" stroke="#FF0000" stroke-width="0.400000px" />
		</g>
		<g>
			<path fill="none" d=" M304,334 L298,254" stroke="#FF0000" stroke-width="0.400000px" />
		</g>
		<g>
			<path fill="none" d=" M304,334 L256,378" stroke="#FF0000" stroke-width="0.400000px" />
		</g>
		<g>
			<path fill="none" d=" M460,342 L490,288" stroke="#FF0000" stroke-width="0.400000px" />
		</g>
		<g>
			<path fill="none" d=" M460,342 L484,416" stroke="#FF0000" stroke-width="0.400000px" />
		</g>
		<g>
			<path fill="none" d=" M460,342 L406,294" stroke="#FF0000" stroke-width="0.400000px" />
		</g>
		<g>
			<path fill="none" d=" M700,734 L662,700" stroke="#FF0000" stroke-width="0.400000px" />
		</g>
		<g>
			<path fill="none" d=" M700,734 L744,754" stroke="#FF0000" stroke-width="0.400000px" />
		</g>
		<g>
			<path fill="none" d=" M558,344 L550,294" stroke="#FF0000" stroke-width="0.400000px" />
		</g>
		<g>
			<path fill="none" d=" M558,344 L524,402" stroke="#FF0000" stroke-width="0.400000px" />
		</g>
		<g>
			<path fill="none" d=" M88,214 L84,280" stroke="#FF0000" stroke-width="0.400000px" />
		</g>
		<g>
			<path fill="none" d=" M88,214 L108,156" stroke="#FF0000" stroke-width="0.400000px" />
		</g>
		<g>
			<path fill="none" d=" M622,658 L584,606" stroke="#FF0000" stroke-width="0.400000px" />
		</g>
		<g>
			<path fill="none" d=" M622,658 L662,700" stroke="#FF0000" stroke-width="0.400000px" />
		</g>
		<g>
			<path fill="none" d=" M484,416 L506,492" stroke="#FF0000" stroke-width="0.400000px" />
		</g>
		<g>
			<path fill="none" d=" M736,792 L748,832" stroke="#FF0000" stroke-width="0.400000px" />
		</g>
		<g>
			<path fill="none" d=" M736,792 L730,732" stroke="#FF0000" stroke-width="0.400000px" />
		</g>
		<g>
			<path fill="none" d=" M744,754 L780,766" stroke="#FF0000" stroke-width="0.400000px" />
		</g>
		<g>
			<path fill="none" d=" M748,702 L788,716" stroke="#FF0000" stroke-width="0.400000px" />
		</g>
		<g>
			<path fill="none" d=" M730,732 L752,786" stroke="#FF0000" stroke-width="0.400000px" />
		</g>
		<g>
			<path fill="none" d=" M172,462 L222,434" stroke="#FF0000" stroke-width="0.400000px" />
		</g>
		<g>
			<path fill="none" d=" M172,462 L128,476" stroke="#FF0000" stroke-width="0.400000px" />
		</g>
		<g>
			<path fill="none" d=" M668,456 L606,422" stroke="#FF0000" stroke-width="0.400000px" />
		</g>
		<g>
			<path fill="none" d=" M668,456 L704,506" stroke="#FF0000" stroke-width="0.400000px" />
		</g>
		<g>
			<path fill="none" d=" M452,544 L510,568" stroke="#FF0000" stroke-width="0.400000px" />
		</g>
		<g>
			<path fill="none" d=" M452,544 L402,510" stroke="#FF0000" stroke-width="0.400000px" />
		</g>
		<g>
			<path fill="none" d=" M526,200 L532,252" stroke="#FF0000" stroke-width="0.400000px" />
		</g>
		<g>
			<path fill="none" d=" M526,200 L514,150" stroke="#FF0000" stroke-width="0.400000px" />
		</g>
		<g>
			<path fill="none" d=" M40,280 L56,332" stroke="#FF0000" stroke-width="0.400000px" />
		</g>
		<g>
			<path fill="none" d=" M40,280 L78,236" stroke="#FF0000" stroke-width="0.400000px" />
		</g>
		<g>
			<path fill="none" d=" M432,414 L344,432" stroke="#FF0000" stroke-width="0.400000px" />
		</g>
		<g>
			<path fill="none" d=" M432,414 L524,402" stroke="#FF0000" stroke-width="0.400000px" />
		</g>
		<g>
			<path fill="none" d=" M538,546 L506,492" stroke="#FF0000" stroke-width="0.400000px" />
		</g>
		<g>
			<path fill="none" d=" M514,150 L476,106" stroke="#FF0000" stroke-width="0.400000px" />
		</g>
		<g>
			<path fill="none" d=" M368,70 L314,84" stroke="#FF0000" stroke-width="0.400000px" />
		</g>
		<g>
			<path fill="none" d=" M368,70 L426,78" stroke="#FF0000" stroke-width="0.400000px" />
		</g>
		<g>
			<path fill="none" d=" M768,856 L768,826" stroke="#FF0000" stroke-width="0.400000px" />
		</g>
		<g>
			<path fill="none" d=" M768,856 L748,832" stroke="#FF0000" stroke-width="0.400000px" />
		</g>
		<g>
			<path fill="none" d=" M606,422 L670,444" stroke="#FF0000" stroke-width="0.400000px" />
		</g>
		<g>
			<path fill="none" d=" M606,422 L524,402" stroke="#FF0000" stroke-width="0.400000px" />
		</g>
		<g>
			<path fill="none" d=" M606,422 L652,438" stroke="#FF0000" stroke-width="0.400000px" />
		</g>
		<g>
			<path fill="none" d=" M92,424 L68,450" stroke="#FF0000" stroke-width="0.400000px" />
		</g>
		<g>
			<path fill="none" d=" M652,438 L670,484" stroke="#FF0000" stroke-width="0.400000px" />
		</g>
		<g>
			<path fill="none" d=" M282,120 L314,84" stroke="#FF0000" stroke-width="0.400000px" />
		</g>
		<g>
			<path fill="none" d=" M282,120 L280,182" stroke="#FF0000" stroke-width="0.400000px" />
		</g>
		<g>
			<path fill="none" d=" M660,538 L670,484" stroke="#FF0000" stroke-width="0.400000px" />
		</g>
		<g>
			<path fill="none" d=" M660,538 L632,584" stroke="#FF0000" stroke-width="0.400000px" />
		</g>
		<g>
			<path fill="none" d=" M256,378 L222,434" stroke="#FF0000" stroke-width="0.400000px" />
		</g>
		<g>
			<path fill="none" d=" M632,584 L584,606" stroke="#FF0000" stroke-width="0.400000px" />
		</g>
		<g>
			<path fill="none" d=" M260,264 L298,254" stroke="#FF0000" stroke-width="0.400000px" />
		</g>
		<g>
			<path fill="none" d=" M260,264 L268,312" stroke="#FF0000" stroke-width="0.400000px" />
		</g>
		<g>
			<path fill="none" d=" M510,568 L446,592" stroke="#FF0000" stroke-width="0.400000px" />
		</g>
		<g>
			<path fill="none" d=" M510,568 L506,492" stroke="#FF0000" stroke-width="0.400000px" />
		</g>
		<g>
			<path fill="none" d=" M510,568 L584,606" stroke="#FF0000" stroke-width="0.400000px" />
		</g>
		<g>
			<path fill="none" d=" M406,294 L348,262" stroke="#FF0000" stroke-width="0.400000px" />
		</g>
		<g>
			<path fill="none" d=" M240,132 L192,122" stroke="#FF0000" stroke-width="0.400000px" />
		</g>
		<g>
			<path fill="none" d=" M240,132 L280,182" stroke="#FF0000" stroke-width="0.400000px" />
		</g>
		<g>
			<path fill="none" d=" M240,132 L262,96" stroke="#FF0000" stroke-width="0.400000px" />
		</g>
		<g>
			<path fill="none" d=" M146,126 L192,122" stroke="#FF0000" stroke-width="0.400000px" />
		</g>
		<g>
			<path fill="none" d=" M146,126 L108,156" stroke="#FF0000" stroke-width="0.400000px" />
		</g>
		<g>
			<path fill="none" d=" M532,252 L550,294" stroke="#FF0000" stroke-width="0.400000px" />
		</g>
		<g>
			<path fill="none" d=" M532,252 L490,288" stroke="#FF0000" stroke-width="0.400000px" />
		</g>
		<g>
			<path fill="none" d=" M56,332 L96,342" stroke="#FF0000" stroke-width="0.400000px" />
		</g>
		<g>
			<path fill="none" d=" M704,506 L670,444" stroke="#FF0000" stroke-width="0.400000px" />
		</g>
		<g>
			<path fill="none" d=" M704,506 L766,480" stroke="#FF0000" stroke-width="0.400000px" />
		</g>
		<g>
			<path fill="none" d=" M704,506 L710,586" stroke="#FF0000" stroke-width="0.400000px" />
		</g>
		<g>
			<path fill="none" d=" M402,510 L360,462" stroke="#FF0000" stroke-width="0.400000px" />
		</g>
		<g>
			<path fill="none" d=" M282,548 L324,578" stroke="#FF0000" stroke-width="0.400000px" />
		</g>
		<g>
			<path fill="none" d=" M282,548 L260,506" stroke="#FF0000" stroke-width="0.400000px" />
		</g>
		<g>
			<path fill="none" d=" M188,432 L264,446" stroke="#FF0000" stroke-width="0.400000px" />
		</g>
		<g>
			<path fill="none" d=" M816,478 L850,494" stroke="#FF0000" stroke-width="0.400000px" />
		</g>
		<g>
			<path fill="none" d=" M816,478 L766,480" stroke="#FF0000" stroke-width="0.400000px" />
		</g>
		<g>
			<path fill="none" d=" M816,478 L858,468" stroke="#FF0000" stroke-width="0.400000px" />
		</g>
		<g>
			<path fill="none" d=" M344,432 L280,452" stroke="#FF0000" stroke-width="0.400000px" />
		</g>
		<g>
			<path fill="none" d=" M344,432 L264,446" stroke="#FF0000" stroke-width="0.400000px" />
		</g>
		<g>
			<path fill="none" d=" M458,580 L516,618" stroke="#FF0000" stroke-width="0.400000px" />
		</g>
		<g>
			<path fill="none" d=" M458,580 L400,536" stroke="#FF0000" stroke-width="0.400000px" />
		</g>
		<g>
			<path fill="none" d=" M280,182 L298,254" stroke="#FF0000" stroke-width="0.400000px" />
		</g>
		<g>
			<path fill="none" d=" M86,478 L128,476" stroke="#FF0000" stroke-width="0.400000px" />
		</g>
		<g>
			<path fill="none" d=" M86,478 L68,450" stroke="#FF0000" stroke-width="0.400000px" />
		</g>
		<g>
			<path fill="none" d=" M174,206 L226,216" stroke="#FF0000" stroke-width="0.400000px" />
		</g>
		<g>
			<path fill="none" d=" M174,206 L128,206" stroke="#FF0000" stroke-width="0.400000px" />
		</g>
		<g>
			<path fill="none" d=" M128,206 L78,236" stroke="#FF0000" stroke-width="0.400000px" />
		</g>
		<g>
			<path fill="none" d=" M260,506 L264,446" stroke="#FF0000" stroke-width="0.400000px" />
		</g>
		<g>
			<path fill="none" d=" M426,78 L476,106" stroke="#FF0000" stroke-width="0.400000px" />
		</g>
		<g>
			<path fill="none" d=" M584,390 L638,410" stroke="#FF0000" stroke-width="0.400000px" />
		</g>
		<g>
			<path fill="none" d=" M584,390 L524,402" stroke="#FF0000" stroke-width="0.400000px" />
		</g>
		<g>
			<path fill="none" d=" M670,444 L638,410" stroke="#FF0000" stroke-width="0.400000px" />
		</g>
		<g>
			<path fill="none" d=" M768,826 L752,786" stroke="#FF0000" stroke-width="0.400000px" />
		</g>
		<g>
			<path fill="none" d=" M584,606 L656,610" stroke="#FF0000" stroke-width="0.400000px" />
		</g>
		<g>
			<path fill="none" d=" M284,234 L226,216" stroke="#FF0000" stroke-width="0.400000px" />
		</g>
		<g>
			<path fill="none" d=" M284,234 L348,262" stroke="#FF0000" stroke-width="0.400000px" />
		</g>
		<g>
			<path fill="none" d=" M314,84 L292,40" stroke="#FF0000" stroke-width="0.400000px" />
		</g>
		<g>
			<path fill="none" d=" M314,84 L262,96" stroke="#FF0000" stroke-width="0.400000px" />
		</g>
		<g>
			<path fill="none" d=" M818,754 L780,766" stroke="#FF0000" stroke-width="0.400000px" />
		</g>
		<g>
			<path fill="none" d=" M818,754 L788,716" stroke="#FF0000" stroke-width="0.400000px" />
		</g>
		<g>
			<path fill="none" d=" M850,494 L894,484" stroke="#FF0000" stroke-width="0.400000px" />
		</g>
		<g>
			<path fill="none" d=" M850,494 L818,532" stroke="#FF0000" stroke-width="0.400000px" />
		</g>
		<g>
			<path fill="none" d=" M382,592 L324,578" stroke="#FF0000" stroke-width="0.400000px" />
		</g>
		<g>
			<path fill="none" d=" M382,592 L446,592" stroke="#FF0000" stroke-width="0.400000px" />
		</g>
		<g>
			<path fill="none" d=" M96,342 L84,280" stroke="#FF0000" stroke-width="0.400000px" />
		</g>
		<g>
			<path fill="none" d=" M360,462 L328,408" stroke="#FF0000" stroke-width="0.400000px" />
		</g>
		<g>
			<path fill="none" d=" M656,610 L718,582" stroke="#FF0000" stroke-width="0.400000px" />
		</g>
		<g>
			<path fill="none" d=" M858,468 L894,484" stroke="#FF0000" stroke-width="0.400000px" />
		</g>
		<g>
			<path fill="none" d=" M718,582 L772,558" stroke="#FF0000" stroke-width="0.400000px" />
		</g>
		<g>
			<path fill="none" d=" M818,532 L772,558" stroke="#FF0000" stroke-width="0.400000px" />
		</g>
		<g>
			<path fill="none" d=" M222,434 L280,452" stroke="#FF0000" stroke-width="0.400000px" />
		</g>
	</g>
	<g>
		<ellipse cx="282" cy="78" rx="5" ry="5" fill="#FFFFFF" stroke-width="1.000000px" stroke="#000000" />
		<text x="272" y="78" text-anchor="middle" dominant-baseline="middle" font-family="Arial" font-size="10" fill="#000000">0</text>
	</g>
	<g>
		<ellipse cx="354" cy="482" rx="5" ry="5" fill="#FFFFFF" stroke-width="1.000000px" stroke="#000000" />
		<text x="344" y="482" text-anchor="middle" dominant-baseline="middle" font-family="Arial" font-size="10" fill="#000000">1</text>
	</g>
	<g>
		<ellipse cx="710" cy="664" rx="5" ry="5" fill="#FFFFFF" stroke-width="1.000000px" stroke="#000000" />
		<text x="700" y="664" text-anchor="middle" dominant-baseline="middle" font-family="Arial" font-size="10" fill="#000000">2</text>
	</g>
	<g>
		<ellipse cx="132" cy="396" rx="5" ry="5" fill="#FFFFFF" stroke-width="1.000000px" stroke="#000000" />
		<text x="122" y="396" text-anchor="middle" dominant-baseline="middle" font-family="Arial" font-size="10" fill="#000000">3</text>
	</g>
	<g>
		<ellipse cx="582" cy="644" rx="5" ry="5" fill="#FFFFFF" stroke-width="1.000000px" stroke="#000000" />
		<text x="572" y="644" text-anchor="middle" dominant-baseline="middle" font-family="Arial" font-size="10" fill="#000000">4</text>
	</g>
	<g>
		<ellipse cx="548" cy="606" rx="5" ry="5" fill="#FFFFFF" stroke-width="1.000000px" stroke="#000000" />
		<text x="538" y="606" text-anchor="middle" dominant-baseline="middle" font-family="Arial" font-size="10" fill="#000000">5</text>
	</g>
	<g>
		<ellipse cx="304" cy="334" rx="5" ry="5" fill="#FFFFFF" stroke-width="1.000000px" stroke="#000000" />
		<text x="294" y="334" text-anchor="middle" dominant-baseline="middle" font-family="Arial" font-size="10" fill="#000000">6</text>
	</g>
	<g>
		<ellipse cx="460" cy="342" rx="5" ry="5" fill="#FFFFFF" stroke-width="1.000000px" stroke="#000000" />
		<text x="450" y="342" text-anchor="middle" dominant-baseline="middle" font-family="Arial" font-size="10" fill="#000000">7</text>
	</g>
	<g>
		<ellipse cx="700" cy="734" rx="5" ry="5" fill="#FFFFFF" stroke-width="1.000000px" stroke="#000000" />
		<text x="690" y="734" text-anchor="middle" dominant-baseline="middle" font-family="Arial" font-size="10" fill="#000000">8</text>
	</g>
	<g>
		<ellipse cx="558" cy="344" rx="5" ry="5" fill="#FFFFFF" stroke-width="1.000000px" stroke="#000000" />
		<text x="548" y="344" text-anchor="middle" dominant-baseline="middle" font-family="Arial" font-size="10" fill="#000000">9</text>
	</g>
	<g>
		<ellipse cx="88" cy="214" rx="5" ry="5" fill="#FFFFFF" stroke-width="1.000000px" stroke="#000000" />
		<text x="78" y="214" text-anchor="middle" dominant-baseline="middle" font-family="Arial" font-size="10" fill="#000000">10</text>
	</g>
	<g>
		<ellipse cx="622" cy="658" rx="5" ry="5" fill="#FFFFFF" stroke-width="1.000000px" stroke="#000000" />
		<text x="612" y="658" text-anchor="middle" dominant-baseline="middle" font-family="Arial" font-size="10" fill="#000000">11</text>
	</g>
	<g>
		<ellipse cx="484" cy="416" rx="5" ry="5" fill="#FFFFFF" stroke-width="1.000000px" stroke="#000000" />
		<text x="474" y="416" text-anchor="middle" dominant-baseline="middle" font-family="Arial" font-size="10" fill="#000000">12</text>
	</g>
	<g>
		<ellipse cx="736" cy="792" rx="5" ry="5" fill="#FFFFFF" stroke-width="1.000000px" stroke="#000000" />
		<text x="726" y="792" text-anchor="middle" dominant-baseline="middle" font-family="Arial" font-size="10" fill="#000000">13</text>
	</g>
	<g>
		<ellipse cx="744" cy="754" rx="5" ry="5" fill="#FFFFFF" stroke-width="1.000000px" stroke="#000000" />
		<text x="734" y="754" text-anchor="middle" dominant-baseline="middle" font-family="Arial" font-size="10" fill="#000000">14</text>
	</g>
	<g>
		<ellipse cx="748" cy="702" rx="5" ry="5" fill="#FFFFFF" stroke-width="1.000000px" stroke="#000000" />
		<text x="738" y="702" text-anchor="middle" dominant-baseline="middle" font-family="Arial" font-size="10" fill="#000000">15</text>
	</g>
	<g>
		<ellipse cx="730" cy="732" rx="5" ry="5" fill="#FFFFFF" stroke-width="1.000000px" stroke="#000000" />
		<text x="720" y="732" text-anchor="middle" dominant-baseline="middle" font-family="Arial" font-size="10" fill="#000000">16</text>
	</g>
	<g>
		<ellipse cx="172" cy="462" rx="5" ry="5" fill="#FFFFFF" stroke-width="1.000000px" stroke="#000000" />
		<text x="162" y="462" text-anchor="middle" dominant-baseline="middle" font-family="Arial" font-size="10" fill="#000000">17</text>
	</g>
	<g>
		<ellipse cx="668" cy="456" rx="5" ry="5" fill="#FFFFFF" stroke-width="1.000000px" stroke="#000000" />
		<text x="658" y="456" text-anchor="middle" dominant-baseline="middle" font-family="Arial" font-size="10" fill="#000000">18</text>
	</g>
	<g>
		<ellipse cx="452" cy="544" rx="5" ry="5" fill="#FFFFFF" stroke-width="1.000000px" stroke="#000000" />
		<text x="442" y="544" text-anchor="middle" dominant-baseline="middle" font-family="Arial" font-size="10" fill="#000000">19</text>
	</g>
	<g>
		<ellipse cx="526" cy="200" rx="5" ry="5" fill="#FFFFFF" stroke-width="1.000000px" stroke="#000000" />
		<text x="516" y="200" text-anchor="middle" dominant-baseline="middle" font-family="Arial" font-size="10" fill="#000000">20</text>
	</g>
	<g>
		<ellipse cx="40" cy="280" rx="5" ry="5" fill="#FFFFFF" stroke-width="1.000000px" stroke="#000000" />
		<text x="30" y="280" text-anchor="middle" dominant-baseline="middle" font-family="Arial" font-size="10" fill="#000000">21</text>
	</g>
	<g>
		<ellipse cx="432" cy="414" rx="5" ry="5" fill="#FFFFFF" stroke-width="1.000000px" stroke="#000000" />
		<text x="422" y="414" text-anchor="middle" dominant-baseline="middle" font-family="Arial" font-size="10" fill="#000000">22</text>
	</g>
	<g>
		<ellipse cx="538" cy="546" rx="5" ry="5" fill="#FFFFFF" stroke-width="1.000000px" stroke="#000000" />
		<text x="528" y="546" text-anchor="middle" dominant-baseline="middle" font-family="Arial" font-size="10" fill="#000000">23</text>
	</g>
	<g>
		<ellipse cx="514" cy="150" rx="5" ry="5" fill="#FFFFFF" stroke-width="1.000000px" stroke="#000000" />
		<text x="504" y="150" text-anchor="middle" dominant-baseline="middle" font-family="Arial" font-size="10" fill="#000000">24</text>
	</g>
	<g>
		<ellipse cx="368" cy="70" rx="5" ry="5" fill="#FFFFFF" stroke-width="1.000000px" stroke="#000000" />
		<text x="358" y="70" text-anchor="middle" dominant-baseline="middle" font-family="Arial" font-size="10" fill="#000000">25</text>
	</g>
	<g>
		<ellipse cx="768" cy="856" rx="5" ry="5" fill="#FFFFFF" stroke-width="1.000000px" stroke="#000000" />
		<text x="758" y="856" text-anchor="middle" dominant-baseline="middle" font-family="Arial" font-size="10" fill="#000000">26</text>
	</g>
	<g>
		<ellipse cx="606" cy="422" rx="5" ry="5" fill="#FFFFFF" stroke-width="1.000000px" stroke="#000000" />
		<text x="596" y="422" text-anchor="middle" dominant-baseline="middle" font-family="Arial" font-size="10" fill="#000000">27</text>
	</g>
	<g>
		<ellipse cx="92" cy="424" rx="5" ry="5" fill="#FFFFFF" stroke-width="1.000000px" stroke="#000000" />
		<text x="82" y="424" text-anchor="middle" dominant-baseline="middle" font-family="Arial" font-size="10" fill="#000000">28</text>
	</g>
	<g>
		<ellipse cx="652" cy="438" rx="5" ry="5" fill="#FFFFFF" stroke-width="1.000000px" stroke="#000000" />
		<text x="642" y="438" text-anchor="middle" dominant-baseline="middle" font-family="Arial" font-size="10" fill="#000000">29</text>
	</g>
	<g>
		<ellipse cx="282" cy="120" rx="5" ry="5" fill="#FFFFFF" stroke-width="1.000000px" stroke="#000000" />
		<text x="272" y="120" text-anchor="middle" dominant-baseline="middle" font-family="Arial" font-size="10" fill="#000000">30</text>
	</g>
	<g>
		<ellipse cx="660" cy="538" rx="5" ry="5" fill="#FFFFFF" stroke-width="1.000000px" stroke="#000000" />
		<text x="650" y="538" text-anchor="middle" dominant-baseline="middle" font-family="Arial" font-size="10" fill="#000000">31</text>
	</g>
	<g>
		<ellipse cx="256" cy="378" rx="5" ry="5" fill="#FFFFFF" stroke-width="1.000000px" stroke="#000000" />
		<text x="246" y="378" text-anchor="middle" dominant-baseline="middle" font-family="Arial" font-size="10" fill="#000000">32</text>
	</g>
	<g>
		<ellipse cx="632" cy="584" rx="5" ry="5" fill="#FFFFFF" stroke-width="1.000000px" stroke="#000000" />
		<text x="622" y="584" text-anchor="middle" dominant-baseline="middle" font-family="Arial" font-size="10" fill="#000000">33</text>
	</g>
	<g>
		<ellipse cx="260" cy="264" rx="5" ry="5" fill="#FFFFFF" stroke-width="1.000000px" stroke="#000000" />
		<text x="250" y="264" text-anchor="middle" dominant-baseline="middle" font-family="Arial" font-size="10" fill="#000000">34</text>
	</g>
	<g>
		<ellipse cx="510" cy="568" rx="5" ry="5" fill="#FFFFFF" stroke-width="1.000000px" stroke="#000000" />
		<text x="500" y="568" text-anchor="middle" dominant-baseline="middle" font-family="Arial" font-size="10" fill="#000000">35</text>
	</g>
	<g>
		<ellipse cx="406" cy="294" rx="5" ry="5" fill="#FFFFFF" stroke-width="1.000000px" stroke="#000000" />
		<text x="396" y="294" text-anchor="middle" dominant-baseline="middle" font-family="Arial" font-size="10" fill="#000000">36</text>
	</g>
	<g>
		<ellipse cx="240" cy="132" rx="5" ry="5" fill="#FFFFFF" stroke-width="1.000000px" stroke="#000000" />
		<text x="230" y="132" text-anchor="middle" dominant-baseline="middle" font-family="Arial" font-size="10" fill="#000000">37</text>
	</g>
	<g>
		<ellipse cx="146" cy="126" rx="5" ry="5" fill="#FFFFFF" stroke-width="1.000000px" stroke="#000000" />
		<text x="136" y="126" text-anchor="middle" dominant-baseline="middle" font-family="Arial" font-size="10" fill="#000000">38</text>
	</g>
	<g>
		<ellipse cx="532" cy="252" rx="5" ry="5" fill="#FFFFFF" stroke-width="1.000000px" stroke="#000000" />
		<text x="522" y="252" text-anchor="middle" dominant-baseline="middle" font-family="Arial" font-size="10" fill="#000000">39</text>
	</g>
	<g>
		<ellipse cx="56" cy="332" rx="5" ry="5" fill="#FFFFFF" stroke-width="1.000000px" stroke="#000000" />
		<text x="46" y="332" text-anchor="middle" dominant-baseline="middle" font-family="Arial" font-size="10" fill="#000000">40</text>
	</g>
	<g>
		<ellipse cx="704" cy="506" rx="5" ry="5" fill="#FFFFFF" stroke-width="1.000000px" stroke="#000000" />
		<text x="694" y="506" text-anchor="middle" dominant-baseline="middle" font-family="Arial" font-size="10" fill="#000000">41</text>
	</g>
	<g>
		<ellipse cx="268" cy="312" rx="5" ry="5" fill="#FFFFFF" stroke-width="1.000000px" stroke="#000000" />
		<text x="258" y="312" text-anchor="middle" dominant-baseline="middle" font-family="Arial" font-size="10" fill="#000000">42</text>
	</g>
	<g>
		<ellipse cx="402" cy="510" rx="5" ry="5" fill="#FFFFFF" stroke-width="1.000000px" stroke="#000000" />
		<text x="392" y="510" text-anchor="middle" dominant-baseline="middle" font-family="Arial" font-size="10" fill="#000000">43</text>
	</g>
	<g>
		<ellipse cx="282" cy="548" rx="5" ry="5" fill="#FFFFFF" stroke-width="1.000000px" stroke="#000000" />
		<text x="272" y="548" text-anchor="middle" dominant-baseline="middle" font-family="Arial" font-size="10" fill="#000000">44</text>
	</g>
	<g>
		<ellipse cx="188" cy="432" rx="5" ry="5" fill="#FFFFFF" stroke-width="1.000000px" stroke="#000000" />
		<text x="178" y="432" text-anchor="middle" dominant-baseline="middle" font-family="Arial" font-size="10" fill="#000000">45</text>
	</g>
	<g>
		<ellipse cx="662" cy="700" rx="5" ry="5" fill="#FFFFFF" stroke-width="1.000000px" stroke="#000000" />
		<text x="652" y="700" text-anchor="middle" dominant-baseline="middle" font-family="Arial" font-size="10" fill="#000000">46</text>
	</g>
	<g>
		<ellipse cx="192" cy="122" rx="5" ry="5" fill="#FFFFFF" stroke-width="1.000000px" stroke="#000000" />
		<text x="182" y="122" text-anchor="middle" dominant-baseline="middle" font-family="Arial" font-size="10" fill="#000000">47</text>
	</g>
	<g>
		<ellipse cx="816" cy="478" rx="5" ry="5" fill="#FFFFFF" stroke-width="1.000000px" stroke="#000000" />
		<text x="806" y="478" text-anchor="middle" dominant-baseline="middle" font-family="Arial" font-size="10" fill="#000000">48</text>
	</g>
	<g>
		<ellipse cx="344" cy="432" rx="5" ry="5" fill="#FFFFFF" stroke-width="1.000000px" stroke="#000000" />
		<text x="334" y="432" text-anchor="middle" dominant-baseline="middle" font-family="Arial" font-size="10" fill="#000000">49</text>
	</g>
	<g>
		<ellipse cx="506" cy="492" rx="5" ry="5" fill="#FFFFFF" stroke-width="1.000000px" stroke="#000000" />
		<text x="496" y="492" text-anchor="middle" dominant-baseline="middle" font-family="Arial" font-size="10" fill="#000000">50</text>
	</g>
	<g>
		<ellipse cx="458" cy="580" rx="5" ry="5" fill="#FFFFFF" stroke-width="1.000000px" stroke="#000000" />
		<text x="448" y="580" text-anchor="middle" dominant-baseline="middle" font-family="Arial" font-size="10" fill="#000000">51</text>
	</g>
	<g>
		<ellipse cx="280" cy="182" rx="5" ry="5" fill="#FFFFFF" stroke-width="1.000000px" stroke="#000000" />
		<text x="270" y="182" text-anchor="middle" dominant-baseline="middle" font-family="Arial" font-size="10" fill="#000000">52</text>
	</g>
	<g>
		<ellipse cx="86" cy="478" rx="5" ry="5" fill="#FFFFFF" stroke-width="1.000000px" stroke="#000000" />
		<text x="76" y="478" text-anchor="middle" dominant-baseline="middle" font-family="Arial" font-size="10" fill="#000000">53</text>
	</g>
	<g>
		<ellipse cx="174" cy="206" rx="5" ry="5" fill="#FFFFFF" stroke-width="1.000000px" stroke="#000000" />
		<text x="164" y="206" text-anchor="middle" dominant-baseline="middle" font-family="Arial" font-size="10" fill="#000000">54</text>
	</g>
	<g>
		<ellipse cx="128" cy="206" rx="5" ry="5" fill="#FFFFFF" stroke-width="1.000000px" stroke="#000000" />
		<text x="118" y="206" text-anchor="middle" dominant-baseline="middle" font-family="Arial" font-size="10" fill="#000000">55</text>
	</g>
	<g>
		<ellipse cx="260" cy="506" rx="5" ry="5" fill="#FFFFFF" stroke-width="1.000000px" stroke="#000000" />
		<text x="250" y="506" text-anchor="middle" dominant-baseline="middle" font-family="Arial" font-size="10" fill="#000000">56</text>
	</g>
	<g>
		<ellipse cx="426" cy="78" rx="5" ry="5" fill="#FFFFFF" stroke-width="1.000000px" stroke="#000000" />
		<text x="416" y="78" text-anchor="middle" dominant-baseline="middle" font-family="Arial" font-size="10" fill="#000000">57</text>
	</g>
	<g>
		<ellipse cx="670" cy="484" rx="5" ry="5" fill="#FFFFFF" stroke-width="1.000000px" stroke="#000000" />
		<text x="660" y="484" text-anchor="middle" dominant-baseline="middle" font-family="Arial" font-size="10" fill="#000000">58</text>
	</g>
	<g>
		<ellipse cx="584" cy="390" rx="5" ry="5" fill="#FFFFFF" stroke-width="1.000000px" stroke="#000000" />
		<text x="574" y="390" text-anchor="middle" dominant-baseline="middle" font-family="Arial" font-size="10" fill="#000000">59</text>
	</g>
	<g>
		<ellipse cx="670" cy="444" rx="5" ry="5" fill="#FFFFFF" stroke-width="1.000000px" stroke="#000000" />
		<text x="660" y="444" text-anchor="middle" dominant-baseline="middle" font-family="Arial" font-size="10" fill="#000000">60</text>
	</g>
	<g>
		<ellipse cx="78" cy="236" rx="5" ry="5" fill="#FFFFFF" stroke-width="1.000000px" stroke="#000000" />
		<text x="68" y="236" text-anchor="middle" dominant-baseline="middle" font-family="Arial" font-size="10" fill="#000000">61</text>
	</g>
	<g>
		<ellipse cx="768" cy="826" rx="5" ry="5" fill="#FFFFFF" stroke-width="1.000000px" stroke="#000000" />
		<text x="758" y="826" text-anchor="middle" dominant-baseline="middle" font-family="Arial" font-size="10" fill="#000000">62</text>
	</g>
	<g>
		<ellipse cx="584" cy="606" rx="5" ry="5" fill="#FFFFFF" stroke-width="1.000000px" stroke="#000000" />
		<text x="574" y="606" text-anchor="middle" dominant-baseline="middle" font-family="Arial" font-size="10" fill="#000000">63</text>
	</g>
	<g>
		<ellipse cx="476" cy="106" rx="5" ry="5" fill="#FFFFFF" stroke-width="1.000000px" stroke="#000000" />
		<text x="466" y="106" text-anchor="middle" dominant-baseline="middle" font-family="Arial" font-size="10" fill="#000000">64</text>
	</g>
	<g>
		<ellipse cx="284" cy="234" rx="5" ry="5" fill="#FFFFFF" stroke-width="1.000000px" stroke="#000000" />
		<text x="274" y="234" text-anchor="middle" dominant-baseline="middle" font-family="Arial" font-size="10" fill="#000000">65</text>
	</g>
	<g>
		<ellipse cx="752" cy="786" rx="5" ry="5" fill="#FFFFFF" stroke-width="1.000000px" stroke="#000000" />
		<text x="742" y="786" text-anchor="middle" dominant-baseline="middle" font-family="Arial" font-size="10" fill="#000000">66</text>
	</g>
	<g>
		<ellipse cx="766" cy="480" rx="5" ry="5" fill="#FFFFFF" stroke-width="1.000000px" stroke="#000000" />
		<text x="756" y="480" text-anchor="middle" dominant-baseline="middle" font-family="Arial" font-size="10" fill="#000000">67</text>
	</g>
	<g>
		<ellipse cx="314" cy="84" rx="5" ry="5" fill="#FFFFFF" stroke-width="1.000000px" stroke="#000000" />
		<text x="304" y="84" text-anchor="middle" dominant-baseline="middle" font-family="Arial" font-size="10" fill="#000000">68</text>
	</g>
	<g>
		<ellipse cx="818" cy="754" rx="5" ry="5" fill="#FFFFFF" stroke-width="1.000000px" stroke="#000000" />
		<text x="808" y="754" text-anchor="middle" dominant-baseline="middle" font-family="Arial" font-size="10" fill="#000000">69</text>
	</g>
	<g>
		<ellipse cx="850" cy="494" rx="5" ry="5" fill="#FFFFFF" stroke-width="1.000000px" stroke="#000000" />
		<text x="840" y="494" text-anchor="middle" dominant-baseline="middle" font-family="Arial" font-size="10" fill="#000000">70</text>
	</g>
	<g>
		<ellipse cx="516" cy="618" rx="5" ry="5" fill="#FFFFFF" stroke-width="1.000000px" stroke="#000000" />
		<text x="506" y="618" text-anchor="middle" dominant-baseline="middle" font-family="Arial" font-size="10" fill="#000000">71</text>
	</g>
	<g>
		<ellipse cx="382" cy="592" rx="5" ry="5" fill="#FFFFFF" stroke-width="1.000000px" stroke="#000000" />
		<text x="372" y="592" text-anchor="middle" dominant-baseline="middle" font-family="Arial" font-size="10" fill="#000000">72</text>
	</g>
	<g>
		<ellipse cx="324" cy="578" rx="5" ry="5" fill="#FFFFFF" stroke-width="1.000000px" stroke="#000000" />
		<text x="314" y="578" text-anchor="middle" dominant-baseline="middle" font-family="Arial" font-size="10" fill="#000000">73</text>
	</g>
	<g>
		<ellipse cx="96" cy="342" rx="5" ry="5" fill="#FFFFFF" stroke-width="1.000000px" stroke="#000000" />
		<text x="86" y="342" text-anchor="middle" dominant-baseline="middle" font-family="Arial" font-size="10" fill="#000000">74</text>
	</g>
	<g>
		<ellipse cx="360" cy="462" rx="5" ry="5" fill="#FFFFFF" stroke-width="1.000000px" stroke="#000000" />
		<text x="350" y="462" text-anchor="middle" dominant-baseline="middle" font-family="Arial" font-size="10" fill="#000000">75</text>
	</g>
	<g>
		<ellipse cx="656" cy="610" rx="5" ry="5" fill="#FFFFFF" stroke-width="1.000000px" stroke="#000000" />
		<text x="646" y="610" text-anchor="middle" dominant-baseline="middle" font-family="Arial" font-size="10" fill="#000000">76</text>
	</g>
	<g>
		<ellipse cx="788" cy="716" rx="5" ry="5" fill="#FFFFFF" stroke-width="1.000000px" stroke="#000000" />
		<text x="778" y="716" text-anchor="middle" dominant-baseline="middle" font-family="Arial" font-size="10" fill="#000000">77</text>
	</g>
	<g>
		<ellipse cx="550" cy="294" rx="5" ry="5" fill="#FFFFFF" stroke-width="1.000000px" stroke="#000000" />
		<text x="540" y="294" text-anchor="middle" dominant-baseline="middle" font-family="Arial" font-size="10" fill="#000000">78</text>
	</g>
	<g>
		<ellipse cx="638" cy="410" rx="5" ry="5" fill="#FFFFFF" stroke-width="1.000000px" stroke="#000000" />
		<text x="628" y="410" text-anchor="middle" dominant-baseline="middle" font-family="Arial" font-size="10" fill="#000000">79</text>
	</g>
	<g>
		<ellipse cx="264" cy="446" rx="5" ry="5" fill="#FFFFFF" stroke-width="1.000000px" stroke="#000000" />
		<text x="254" y="446" text-anchor="middle" dominant-baseline="middle" font-family="Arial" font-size="10" fill="#000000">80</text>
	</g>
	<g>
		<ellipse cx="858" cy="468" rx="5" ry="5" fill="#FFFFFF" stroke-width="1.000000px" stroke="#000000" />
		<text x="848" y="468" text-anchor="middle" dominant-baseline="middle" font-family="Arial" font-size="10" fill="#000000">81</text>
	</g>
	<g>
		<ellipse cx="490" cy="288" rx="5" ry="5" fill="#FFFFFF" stroke-width="1.000000px" stroke="#000000" />
		<text x="480" y="288" text-anchor="middle" dominant-baseline="middle" font-family="Arial" font-size="10" fill="#000000">82</text>
	</g>
	<g>
		<ellipse cx="400" cy="536" rx="5" ry="5" fill="#FFFFFF" stroke-width="1.000000px" stroke="#000000" />
		<text x="390" y="536" text-anchor="middle" dominant-baseline="middle" font-family="Arial" font-size="10" fill="#000000">83</text>
	</g>
	<g>
		<ellipse cx="648" cy="668" rx="5" ry="5" fill="#FFFFFF" stroke-width="1.000000px" stroke="#000000" />
		<text x="638" y="668" text-anchor="middle" dominant-baseline="middle" font-family="Arial" font-size="10" fill="#000000">84</text>
	</g>
	<g>
		<ellipse cx="780" cy="766" rx="5" ry="5" fill="#FFFFFF" stroke-width="1.000000px" stroke="#000000" />
		<text x="770" y="766" text-anchor="middle" dominant-baseline="middle" font-family="Arial" font-size="10" fill="#000000">85</text>
	</g>
	<g>
		<ellipse cx="710" cy="586" rx="5" ry="5" fill="#FFFFFF" stroke-width="1.000000px" stroke="#000000" />
		<text x="700" y="586" text-anchor="middle" dominant-baseline="middle" font-family="Arial" font-size="10" fill="#000000">86</text>
	</g>
	<g>
		<ellipse cx="524" cy="402" rx="5" ry="5" fill="#FFFFFF" stroke-width="1.000000px" stroke="#000000" />
		<text x="514" y="402" text-anchor="middle" dominant-baseline="middle" font-family="Arial" font-size="10" fill="#000000">87</text>
	</g>
	<g>
		<ellipse cx="298" cy="254" rx="5" ry="5" fill="#FFFFFF" stroke-width="1.000000px" stroke="#000000" />
		<text x="288" y="254" text-anchor="middle" dominant-baseline="middle" font-family="Arial" font-size="10" fill="#000000">88</text>
	</g>
	<g>
		<ellipse cx="748" cy="832" rx="5" ry="5" fill="#FFFFFF" stroke-width="1.000000px" stroke="#000000" />
		<text x="738" y="832" text-anchor="middle" dominant-baseline="middle" font-family="Arial" font-size="10" fill="#000000">89</text>
	</g>
	<g>
		<ellipse cx="328" cy="408" rx="5" ry="5" fill="#FFFFFF" stroke-width="1.000000px" stroke="#000000" />
		<text x="318" y="408" text-anchor="middle" dominant-baseline="middle" font-family="Arial" font-size="10" fill="#000000">90</text>
	</g>
	<g>
		<ellipse cx="84" cy="280" rx="5" ry="5" fill="#FFFFFF" stroke-width="1.000000px" stroke="#000000" />
		<text x="74" y="280" text-anchor="middle" dominant-baseline="middle" font-family="Arial" font-size="10" fill="#000000">91</text>
	</g>
	<g>
		<ellipse cx="68" cy="450" rx="5" ry="5" fill="#FFFFFF" stroke-width="1.000000px" stroke="#000000" />
		<text x="58" y="450" text-anchor="middle" dominant-baseline="middle" font-family="Arial" font-size="10" fill="#000000">92</text>
	</g>
	<g>
		<ellipse cx="108" cy="156" rx="5" ry="5" fill="#FFFFFF" stroke-width="1.000000px" stroke="#000000" />
		<text x="98" y="156" text-anchor="middle" dominant-baseline="middle" font-family="Arial" font-size="10" fill="#000000">93</text>
	</g>
	<g>
		<ellipse cx="128" cy="476" rx="5" ry="5" fill="#FFFFFF" stroke-width="1.000000px" stroke="#000000" />
		<text x="118" y="476" text-anchor="middle" dominant-baseline="middle" font-family="Arial" font-size="10" fill="#000000">94</text>
	</g>
	<g>
		<ellipse cx="718" cy="582" rx="5" ry="5" fill="#FFFFFF" stroke-width="1.000000px" stroke="#000000" />
		<text x="708" y="582" text-anchor="middle" dominant-baseline="middle" font-family="Arial" font-size="10" fill="#000000">95</text>
	</g>
	<g>
		<ellipse cx="226" cy="216" rx="5" ry="5" fill="#FFFFFF" stroke-width="1.000000px" stroke="#000000" />
		<text x="216" y="216" text-anchor="middle" dominant-baseline="middle" font-family="Arial" font-size="10" fill="#000000">96</text>
	</g>
	<g>
		<ellipse cx="292" cy="40" rx="5" ry="5" fill="#FFFFFF" stroke-width="1.000000px" stroke="#000000" />
		<text x="282" y="40" text-anchor="middle" dominant-baseline="middle" font-family="Arial" font-size="10" fill="#000000">97</text>
	</g>
	<g>
		<ellipse cx="818" cy="532" rx="5" ry="5" fill="#FFFFFF" stroke-width="1.000000px" stroke="#000000" />
		<text x="808" y="532" text-anchor="middle" dominant-baseline="middle" font-family="Arial" font-size="10" fill="#000000">98</text>
	</g>
	<g>
		<ellipse cx="772" cy="558" rx="5" ry="5" fill="#FFFFFF" stroke-width="1.000000px" stroke="#000000" />
		<text x="762" y="558" text-anchor="middle" dominant-baseline="middle" font-family="Arial" font-size="10" fill="#000000">99</text>
	</g>
	<g>
		<ellipse cx="262" cy="96" rx="5" ry="5" fill="#FFFFFF" stroke-width="1.000000px" stroke="#000000" />
		<text x="252" y="96" text-anchor="middle" dominant-baseline="middle" font-family="Arial" font-size="10" fill="#000000">100</text>
	</g>
	<g>
		<ellipse cx="348" cy="262" rx="5" ry="5" fill="#FFFFFF" stroke-width="1.000000px" stroke="#000000" />
		<text x="338" y="262" text-anchor="middle" dominant-baseline="middle" font-family="Arial" font-size="10" fill="#000000">101</text>
	</g>
	<g>
		<ellipse cx="222" cy="434" rx="5" ry="5" fill="#FFFFFF" stroke-width="1.000000px" stroke="#000000" />
		<text x="212" y="434" text-anchor="middle" dominant-baseline="middle" font-family="Arial" font-size="10" fill="#000000">102</text>
	</g>
	<g>
		<ellipse cx="280" cy="452" rx="5" ry="5" fill="#FFFFFF" stroke-width="1.000000px" stroke="#000000" />
		<text x="270" y="452" text-anchor="middle" dominant-baseline="middle" font-family="Arial" font-size="10" fill="#000000">103</text>
	</g>
	<g>
		<ellipse cx="894" cy="484" rx="5" ry="5" fill="#FFFFFF" stroke-width="1.000000px" stroke="#000000" />
		<text x="884" y="484" text-anchor="middle" dominant-baseline="middle" font-family="Arial" font-size="10" fill="#000000">104</text>
	</g>
	<g>
		<ellipse cx="446" cy="592" rx="5" ry="5" fill="#FFFFFF" stroke-width="1.000000px" stroke="#000000" />
		<text x="436" y="592" text-anchor="middle" dominant-baseline="middle" font-family="Arial" font-size="10" fill="#000000">105</text>
	</g>
</svg>
