<?xml version="1.0"?>
<svg xmlns="http://www.w3.org/2000/svg" xmlns:xlink="http://www.w3.org/1999/xlink" xmlns:ev="http://www.w3.org/2001/xml-events" version="1.1" baseProfile="full" viewBox="33.5 33.5 467 461">
	<g>
		<g>
			<path fill="none" d=" M252,266 L288,314" stroke="#FF0000" stroke-width="0.400000px" />
		</g>
		<g>
			<path fill="none" d=" M252,266 L220,212" stroke="#FF0000" stroke-width="0.400000px" />
		</g>
		<g>
			<path fill="none" d=" M288,314 L356,324" stroke="#FF0000" stroke-width="0.400000px" />
		</g>
		<g>
			<path fill="none" d=" M288,314 L226,326" stroke="#FF0000" stroke-width="0.400000px" />
		</g>
		<g>
			<path fill="none" d=" M220,212 L212,270" stroke="#FF0000" stroke-width="0.400000px" />
		</g>
		<g>
			<path fill="none" d=" M220,212 L164,232" stroke="#FF0000" stroke-width="0.400000px" />
		</g>
		<g>
			<path fill="none" d=" M220,212 L154,190" stroke="#FF0000" stroke-width="0.400000px" />
		</g>
		<g>
			<path fill="none" d=" M220,212 L250,150" stroke="#FF0000" stroke-width="0.400000px" />
		</g>
		<g>
			<path fill="none" d=" M220,212 L282,228" stroke="#FF0000" stroke-width="0.400000px" />
		</g>
		<g>
			<path fill="none" d=" M212,270 L226,326" stroke="#FF0000" stroke-width="0.400000px" />
		</g>
		<g>
			<path fill="none" d=" M164,232 L124,270" stroke="#FF0000" stroke-width="0.400000px" />
		</g>
		<g>
			<path fill="none" d=" M154,190 L114,154" stroke="#FF0000" stroke-width="0.400000px" />
		</g>
		<g>
			<path fill="none" d=" M154,190 L90,194" stroke="#FF0000" stroke-width="0.400000px" />
		</g>
		<g>
			<path fill="none" d=" M356,324 L416,336" stroke="#FF0000" stroke-width="0.400000px" />
		</g>
		<g>
			<path fill="none" d=" M356,324 L338,256" stroke="#FF0000" stroke-width="0.400000px" />
		</g>
		<g>
			<path fill="none" d=" M356,324 L396,378" stroke="#FF0000" stroke-width="0.400000px" />
		</g>
		<g>
			<path fill="none" d=" M356,324 L346,378" stroke="#FF0000" stroke-width="0.400000px" />
		</g>
		<g>
			<path fill="none" d=" M356,324 L408,306" stroke="#FF0000" stroke-width="0.400000px" />
		</g>
		<g>
			<path fill="none" d=" M250,150 L258,88" stroke="#FF0000" stroke-width="0.400000px" />
		</g>
		<g>
			<path fill="none" d=" M250,150 L310,144" stroke="#FF0000" stroke-width="0.400000px" />
		</g>
		<g>
			<path fill="none" d=" M124,270 L118,320" stroke="#FF0000" stroke-width="0.400000px" />
		</g>
		<g>
			<path fill="none" d=" M258,88 L298,52" stroke="#FF0000" stroke-width="0.400000px" />
		</g>
		<g>
			<path fill="none" d=" M258,88 L260,40" stroke="#FF0000" stroke-width="0.400000px" />
		</g>
		<g>
			<path fill="none" d=" M416,336 L470,334" stroke="#FF0000" stroke-width="0.400000px" />
		</g>
		<g>
			<path fill="none" d=" M338,256 L342,194" stroke="#FF0000" stroke-width="0.400000px" />
		</g>
		<g>
			<path fill="none" d=" M338,256 L390,236" stroke="#FF0000" stroke-width="0.400000px" />
		</g>
		<g>
			<path fill="none" d=" M338,256 L282,228" stroke="#FF0000" stroke-width="0.400000px" />
		</g>
		<g>
			<path fill="none" d=" M396,378 L416,434" stroke="#FF0000" stroke-width="0.400000px" />
		</g>
		<g>
			<path fill="none" d=" M396,378 L450,396" stroke="#FF0000" stroke-width="0.400000px" />
		</g>
		<g>
			<path fill="none" d=" M226,326 L170,344" stroke="#FF0000" stroke-width="0.400000px" />
		</g>
		<g>
			<path fill="none" d=" M416,434 L454,464" stroke="#FF0000" stroke-width="0.400000px" />
		</g>
		<g>
			<path fill="none" d=" M342,194 L310,144" stroke="#FF0000" stroke-width="0.400000px" />
		</g>
		<g>
			<path fill="none" d=" M298,52 L322,92" stroke="#FF0000" stroke-width="0.400000px" />
		</g>
		<g>
			<path fill="none" d=" M310,144 L322,92" stroke="#FF0000" stroke-width="0.400000px" />
		</g>
		<g>
			<path fill="none" d=" M90,194 L54,236" stroke="#FF0000" stroke-width="0.400000px" />
		</g>
		<g>
			<path fill="none" d=" M90,194 L40,180" stroke="#FF0000" stroke-width="0.400000px" />
		</g>
		<g>
			<path fill="none" d=" M54,236 L72,288" stroke="#FF0000" stroke-width="0.400000px" />
		</g>
		<g>
			<path fill="none" d=" M118,320 L170,344" stroke="#FF0000" stroke-width="0.400000px" />
		</g>
		<g>
			<path fill="none" d=" M118,320 L72,288" stroke="#FF0000" stroke-width="0.400000px" />
		</g>
		<g>
			<path fill="none" d=" M454,464 L494,488" stroke="#FF0000" stroke-width="0.400000px" />
		</g>
	</g>
	<g>
		<ellipse cx="252" cy="266" rx="5" ry="5" fill="#FFFFFF" stroke-width="1.000000px" stroke="#000000" />
		<text x="242" y="266" text-anchor="middle" dominant-baseline="middle" font-family="Arial" font-size="10" fill="#000000">0</text>
	</g>
	<g>
		<ellipse cx="288" cy="314" rx="5" ry="5" fill="#FFFFFF" stroke-width="1.000000px" stroke="#000000" />
		<text x="278" y="314" text-anchor="middle" dominant-baseline="middle" font-family="Arial" font-size="10" fill="#000000">1</text>
	</g>
	<g>
		<ellipse cx="220" cy="212" rx="5" ry="5" fill="#FFFFFF" stroke-width="1.000000px" stroke="#000000" />
		<text x="210" y="212" text-anchor="middle" dominant-baseline="middle" font-family="Arial" font-size="10" fill="#000000">2</text>
	</g>
	<g>
		<ellipse cx="212" cy="270" rx="5" ry="5" fill="#FFFFFF" stroke-width="1.000000px" stroke="#000000" />
		<text x="202" y="270" text-anchor="middle" dominant-baseline="middle" font-family="Arial" font-size="10" fill="#000000">3</text>
	</g>
	<g>
		<ellipse cx="164" cy="232" rx="5" ry="5" fill="#FFFFFF" stroke-width="1.000000px" stroke="#000000" />
		<text x="154" y="232" text-anchor="middle" dominant-baseline="middle" font-family="Arial" font-size="10" fill="#000000">4</text>
	</g>
	<g>
		<ellipse cx="154" cy="190" rx="5" ry="5" fill="#00FF00" stroke-width="1.000000px" stroke="#000000" />
		<text x="144" y="190" text-anchor="middle" dominant-baseline="middle" font-family="Arial" font-size="10" fill="#000000">5</text>
	</g>
	<g>
		<ellipse cx="356" cy="324" rx="5" ry="5" fill="#00FF00" stroke-width="1.000000px" stroke="#000000" />
		<text x="346" y="324" text-anchor="middle" dominant-baseline="middle" font-family="Arial" font-size="10" fill="#000000">6</text>
	</g>
	<g>
		<ellipse cx="250" cy="150" rx="5" ry="5" fill="#FFFFFF" stroke-width="1.000000px" stroke="#000000" />
		<text x="240" y="150" text-anchor="middle" dominant-baseline="middle" font-family="Arial" font-size="10" fill="#000000">7</text>
	</g>
	<g>
		<ellipse cx="124" cy="270" rx="5" ry="5" fill="#FFFFFF" stroke-width="1.000000px" stroke="#000000" />
		<text x="114" y="270" text-anchor="middle" dominant-baseline="middle" font-family="Arial" font-size="10" fill="#000000">8</text>
	</g>
	<g>
		<ellipse cx="258" cy="88" rx="5" ry="5" fill="#00FF00" stroke-width="1.000000px" stroke="#000000" />
		<text x="248" y="88" text-anchor="middle" dominant-baseline="middle" font-family="Arial" font-size="10" fill="#000000">9</text>
	</g>
	<g>
		<ellipse cx="416" cy="336" rx="5" ry="5" fill="#00FF00" stroke-width="1.000000px" stroke="#000000" />
		<text x="406" y="336" text-anchor="middle" dominant-baseline="middle" font-family="Arial" font-size="10" fill="#000000">10</text>
	</g>
	<g>
		<ellipse cx="338" cy="256" rx="5" ry="5" fill="#00FF00" stroke-width="1.000000px" stroke="#000000" />
		<text x="328" y="256" text-anchor="middle" dominant-baseline="middle" font-family="Arial" font-size="10" fill="#000000">11</text>
	</g>
	<g>
		<ellipse cx="396" cy="378" rx="5" ry="5" fill="#00FF00" stroke-width="1.000000px" stroke="#000000" />
		<text x="386" y="378" text-anchor="middle" dominant-baseline="middle" font-family="Arial" font-size="10" fill="#000000">12</text>
	</g>
	<g>
		<ellipse cx="226" cy="326" rx="5" ry="5" fill="#FFFFFF" stroke-width="1.000000px" stroke="#000000" />
		<text x="216" y="326" text-anchor="middle" dominant-baseline="middle" font-family="Arial" font-size="10" fill="#000000">13</text>
	</g>
	<g>
		<ellipse cx="346" cy="378" rx="5" ry="5" fill="#FFFFFF" stroke-width="1.000000px" stroke="#000000" />
		<text x="336" y="378" text-anchor="middle" dominant-baseline="middle" font-family="Arial" font-size="10" fill="#000000">14</text>
	</g>
	<g>
		<ellipse cx="416" cy="434" rx="5" ry="5" fill="#00FF00" stroke-width="1.000000px" stroke="#000000" />
		<text x="406" y="434" text-anchor="middle" dominant-baseline="middle" font-family="Arial" font-size="10" fill="#000000">15</text>
	</g>
	<g>
		<ellipse cx="342" cy="194" rx="5" ry="5" fill="#FFFFFF" stroke-width="1.000000px" stroke="#000000" />
		<text x="332" y="194" text-anchor="middle" dominant-baseline="middle" font-family="Arial" font-size="10" fill="#000000">16</text>
	</g>
	<g>
		<ellipse cx="390" cy="236" rx="5" ry="5" fill="#FFFFFF" stroke-width="1.000000px" stroke="#000000" />
		<text x="380" y="236" text-anchor="middle" dominant-baseline="middle" font-family="Arial" font-size="10" fill="#000000">17</text>
	</g>
	<g>
		<ellipse cx="298" cy="52" rx="5" ry="5" fill="#FFFFFF" stroke-width="1.000000px" stroke="#000000" />
		<text x="288" y="52" text-anchor="middle" dominant-baseline="middle" font-family="Arial" font-size="10" fill="#000000">18</text>
	</g>
	<g>
		<ellipse cx="282" cy="228" rx="5" ry="5" fill="#FFFFFF" stroke-width="1.000000px" stroke="#000000" />
		<text x="272" y="228" text-anchor="middle" dominant-baseline="middle" font-family="Arial" font-size="10" fill="#000000">19</text>
	</g>
	<g>
		<ellipse cx="114" cy="154" rx="5" ry="5" fill="#FFFFFF" stroke-width="1.000000px" stroke="#000000" />
		<text x="104" y="154" text-anchor="middle" dominant-baseline="middle" font-family="Arial" font-size="10" fill="#000000">20</text>
	</g>
	<g>
		<ellipse cx="310" cy="144" rx="5" ry="5" fill="#FFFFFF" stroke-width="1.000000px" stroke="#000000" />
		<text x="300" y="144" text-anchor="middle" dominant-baseline="middle" font-family="Arial" font-size="10" fill="#000000">21</text>
	</g>
	<g>
		<ellipse cx="90" cy="194" rx="5" ry="5" fill="#00FF00" stroke-width="1.000000px" stroke="#000000" />
		<text x="80" y="194" text-anchor="middle" dominant-baseline="middle" font-family="Arial" font-size="10" fill="#000000">22</text>
	</g>
	<g>
		<ellipse cx="322" cy="92" rx="5" ry="5" fill="#FFFFFF" stroke-width="1.000000px" stroke="#000000" />
		<text x="312" y="92" text-anchor="middle" dominant-baseline="middle" font-family="Arial" font-size="10" fill="#000000">23</text>
	</g>
	<g>
		<ellipse cx="470" cy="334" rx="5" ry="5" fill="#FFFFFF" stroke-width="1.000000px" stroke="#000000" />
		<text x="460" y="334" text-anchor="middle" dominant-baseline="middle" font-family="Arial" font-size="10" fill="#000000">24</text>
	</g>
	<g>
		<ellipse cx="54" cy="236" rx="5" ry="5" fill="#FFFFFF" stroke-width="1.000000px" stroke="#000000" />
		<text x="44" y="236" text-anchor="middle" dominant-baseline="middle" font-family="Arial" font-size="10" fill="#000000">25</text>
	</g>
	<g>
		<ellipse cx="450" cy="396" rx="5" ry="5" fill="#FFFFFF" stroke-width="1.000000px" stroke="#000000" />
		<text x="440" y="396" text-anchor="middle" dominant-baseline="middle" font-family="Arial" font-size="10" fill="#000000">26</text>
	</g>
	<g>
		<ellipse cx="118" cy="320" rx="5" ry="5" fill="#FFFFFF" stroke-width="1.000000px" stroke="#000000" />
		<text x="108" y="320" text-anchor="middle" dominant-baseline="middle" font-family="Arial" font-size="10" fill="#000000">27</text>
	</g>
	<g>
		<ellipse cx="170" cy="344" rx="5" ry="5" fill="#FFFFFF" stroke-width="1.000000px" stroke="#000000" />
		<text x="160" y="344" text-anchor="middle" dominant-baseline="middle" font-family="Arial" font-size="10" fill="#000000">28</text>
	</g>
	<g>
		<ellipse cx="260" cy="40" rx="5" ry="5" fill="#FFFFFF" stroke-width="1.000000px" stroke="#000000" />
		<text x="250" y="40" text-anchor="middle" dominant-baseline="middle" font-family="Arial" font-size="10" fill="#000000">29</text>
	</g>
	<g>
		<ellipse cx="408" cy="306" rx="5" ry="5" fill="#FFFFFF" stroke-width="1.000000px" stroke="#000000" />
		<text x="398" y="306" text-anchor="middle" dominant-baseline="middle" font-family="Arial" font-size="10" fill="#000000">30</text>
	</g>
	<g>
		<ellipse cx="454" cy="464" rx="5" ry="5" fill="#00FF00" stroke-width="1.000000px" stroke="#000000" />
		<text x="444" y="464" text-anchor="middle" dominant-baseline="middle" font-family="Arial" font-size="10" fill="#000000">31</text>
	</g>
	<g>
		<ellipse cx="72" cy="288" rx="5" ry="5" fill="#FFFFFF" stroke-width="1.000000px" stroke="#000000" />
		<text x="62" y="288" text-anchor="middle" dominant-baseline="middle" font-family="Arial" font-size="10" fill="#000000">32</text>
	</g>
	<g>
		<ellipse cx="494" cy="488" rx="5" ry="5" fill="#FFFFFF" stroke-width="1.000000px" stroke="#000000" />
		<text x="484" y="488" text-anchor="middle" dominant-baseline="middle" font-family="Arial" font-size="10" fill="#000000">33</text>
	</g>
	<g>
		<ellipse cx="40" cy="180" rx="5" ry="5" fill="#FFFFFF" stroke-width="1.000000px" stroke="#000000" />
		<text x="30" y="180" text-anchor="middle" dominant-baseline="middle" font-family="Arial" font-size="10" fill="#000000">34</text>
	</g>
</svg>
