<?xml version="1.0"?>
<svg xmlns="http://www.w3.org/2000/svg" xmlns:xlink="http://www.w3.org/1999/xlink" xmlns:ev="http://www.w3.org/2001/xml-events" version="1.1" baseProfile="full" viewBox="33.5 33.5 813 449">
	<g>
		<g>
			<path fill="none" d=" M310,306 L354,264" stroke="#FF0000" stroke-width="0.400000px" />
		</g>
		<g>
			<path fill="none" d=" M710,136 L690,188" stroke="#FF0000" stroke-width="0.400000px" />
		</g>
		<g>
			<path fill="none" d=" M292,230 L354,264" stroke="#FF0000" stroke-width="0.400000px" />
		</g>
		<g>
			<path fill="none" d=" M354,264 L430,272" stroke="#FF0000" stroke-width="0.400000px" />
		</g>
		<g>
			<path fill="none" d=" M498,246 L564,222" stroke="#FF0000" stroke-width="0.400000px" />
		</g>
		<g>
			<path fill="none" d=" M342,204 L292,230" stroke="#FF0000" stroke-width="0.400000px" />
		</g>
		<g>
			<path fill="none" d=" M184,142 L180,188" stroke="#FF0000" stroke-width="0.400000px" />
		</g>
		<g>
			<path fill="none" d=" M710,136 L722,86" stroke="#FF0000" stroke-width="0.400000px" />
		</g>
		<g>
			<path fill="none" d=" M258,280 L292,230" stroke="#FF0000" stroke-width="0.400000px" />
		</g>
		<g>
			<path fill="none" d=" M690,188 L628,202" stroke="#FF0000" stroke-width="0.400000px" />
		</g>
		<g>
			<path fill="none" d=" M234,182 L184,142" stroke="#FF0000" stroke-width="0.400000px" />
		</g>
		<g>
			<path fill="none" d=" M132,50 L134,102" stroke="#FF0000" stroke-width="0.400000px" />
		</g>
		<g>
			<path fill="none" d=" M486,276 L430,272" stroke="#FF0000" stroke-width="0.400000px" />
		</g>
		<g>
			<path fill="none" d=" M354,264 L430,272" stroke="#FF0000" stroke-width="0.400000px" />
		</g>
		<g>
			<path fill="none" d=" M234,182 L240,126" stroke="#FF0000" stroke-width="0.400000px" />
		</g>
		<g>
			<path fill="none" d=" M430,272 L498,246" stroke="#FF0000" stroke-width="0.400000px" />
		</g>
		<g>
			<path fill="none" d=" M440,396 L436,338" stroke="#FF0000" stroke-width="0.400000px" />
		</g>
		<g>
			<path fill="none" d=" M798,198 L840,194" stroke="#FF0000" stroke-width="0.400000px" />
		</g>
		<g>
			<path fill="none" d=" M184,142 L134,102" stroke="#FF0000" stroke-width="0.400000px" />
		</g>
		<g>
			<path fill="none" d=" M628,202 L564,222" stroke="#FF0000" stroke-width="0.400000px" />
		</g>
		<g>
			<path fill="none" d=" M258,340 L310,306" stroke="#FF0000" stroke-width="0.400000px" />
		</g>
		<g>
			<path fill="none" d=" M212,364 L258,340" stroke="#FF0000" stroke-width="0.400000px" />
		</g>
		<g>
			<path fill="none" d=" M744,198 L798,198" stroke="#FF0000" stroke-width="0.400000px" />
		</g>
		<g>
			<path fill="none" d=" M436,338 L430,272" stroke="#FF0000" stroke-width="0.400000px" />
		</g>
		<g>
			<path fill="none" d=" M690,188 L744,198" stroke="#FF0000" stroke-width="0.400000px" />
		</g>
		<g>
			<path fill="none" d=" M132,50 L86,40" stroke="#FF0000" stroke-width="0.400000px" />
		</g>
		<g>
			<path fill="none" d=" M540,282 L586,312" stroke="#FF0000" stroke-width="0.400000px" />
		</g>
		<g>
			<path fill="none" d=" M258,340 L244,396" stroke="#FF0000" stroke-width="0.400000px" />
		</g>
		<g>
			<path fill="none" d=" M396,224 L430,272" stroke="#FF0000" stroke-width="0.400000px" />
		</g>
		<g>
			<path fill="none" d=" M396,224 L342,204" stroke="#FF0000" stroke-width="0.400000px" />
		</g>
		<g>
			<path fill="none" d=" M486,276 L540,282" stroke="#FF0000" stroke-width="0.400000px" />
		</g>
		<g>
			<path fill="none" d=" M234,182 L292,230" stroke="#FF0000" stroke-width="0.400000px" />
		</g>
		<g>
			<path fill="none" d=" M258,340 L258,280" stroke="#FF0000" stroke-width="0.400000px" />
		</g>
		<g>
			<path fill="none" d=" M498,246 L540,282" stroke="#FF0000" stroke-width="0.400000px" />
		</g>
		<g>
			<path fill="none" d=" M82,88 L40,64" stroke="#FF0000" stroke-width="0.400000px" />
		</g>
		<g>
			<path fill="none" d=" M234,182 L180,188" stroke="#FF0000" stroke-width="0.400000px" />
		</g>
		<g>
			<path fill="none" d=" M430,272 L404,322" stroke="#FF0000" stroke-width="0.400000px" />
		</g>
		<g>
			<path fill="none" d=" M430,272 L466,314" stroke="#FF0000" stroke-width="0.400000px" />
		</g>
		<g>
			<path fill="none" d=" M134,102 L82,88" stroke="#FF0000" stroke-width="0.400000px" />
		</g>
		<g>
			<path fill="none" d=" M86,40 L82,88" stroke="#FF0000" stroke-width="0.400000px" />
		</g>
	</g>
	<g>
		<ellipse cx="212" cy="364" rx="5" ry="5" fill="#FFFFFF" stroke-width="1.000000px" stroke="#000000" />
		<text x="202" y="364" text-anchor="middle" dominant-baseline="middle" font-family="Arial" font-size="10" fill="#000000">0</text>
	</g>
	<g>
		<ellipse cx="86" cy="40" rx="5" ry="5" fill="#FFFFFF" stroke-width="1.000000px" stroke="#000000" />
		<text x="76" y="40" text-anchor="middle" dominant-baseline="middle" font-family="Arial" font-size="10" fill="#000000">1</text>
	</g>
	<g>
		<ellipse cx="40" cy="476" rx="5" ry="5" fill="#FFFFFF" stroke-width="1.000000px" stroke="#000000" />
		<text x="30" y="476" text-anchor="middle" dominant-baseline="middle" font-family="Arial" font-size="10" fill="#000000">2</text>
	</g>
	<g>
		<ellipse cx="120" cy="476" rx="5" ry="5" fill="#FFFFFF" stroke-width="1.000000px" stroke="#000000" />
		<text x="110" y="476" text-anchor="middle" dominant-baseline="middle" font-family="Arial" font-size="10" fill="#000000">3</text>
	</g>
	<g>
		<ellipse cx="244" cy="396" rx="5" ry="5" fill="#FFFFFF" stroke-width="1.000000px" stroke="#000000" />
		<text x="234" y="396" text-anchor="middle" dominant-baseline="middle" font-family="Arial" font-size="10" fill="#000000">4</text>
	</g>
	<g>
		<ellipse cx="200" cy="476" rx="5" ry="5" fill="#FFFFFF" stroke-width="1.000000px" stroke="#000000" />
		<text x="190" y="476" text-anchor="middle" dominant-baseline="middle" font-family="Arial" font-size="10" fill="#000000">5</text>
	</g>
	<g>
		<ellipse cx="744" cy="198" rx="5" ry="5" fill="#FFFFFF" stroke-width="1.000000px" stroke="#000000" />
		<text x="734" y="198" text-anchor="middle" dominant-baseline="middle" font-family="Arial" font-size="10" fill="#000000">6</text>
	</g>
	<g>
		<ellipse cx="280" cy="476" rx="5" ry="5" fill="#FFFFFF" stroke-width="1.000000px" stroke="#000000" />
		<text x="270" y="476" text-anchor="middle" dominant-baseline="middle" font-family="Arial" font-size="10" fill="#000000">7</text>
	</g>
	<g>
		<ellipse cx="360" cy="476" rx="5" ry="5" fill="#FFFFFF" stroke-width="1.000000px" stroke="#000000" />
		<text x="350" y="476" text-anchor="middle" dominant-baseline="middle" font-family="Arial" font-size="10" fill="#000000">8</text>
	</g>
	<g>
		<ellipse cx="240" cy="126" rx="5" ry="5" fill="#FFFFFF" stroke-width="1.000000px" stroke="#000000" />
		<text x="230" y="126" text-anchor="middle" dominant-baseline="middle" font-family="Arial" font-size="10" fill="#000000">9</text>
	</g>
	<g>
		<ellipse cx="798" cy="198" rx="5" ry="5" fill="#FFFFFF" stroke-width="1.000000px" stroke="#000000" />
		<text x="788" y="198" text-anchor="middle" dominant-baseline="middle" font-family="Arial" font-size="10" fill="#000000">10</text>
	</g>
	<g>
		<ellipse cx="184" cy="142" rx="5" ry="5" fill="#FFFFFF" stroke-width="1.000000px" stroke="#000000" />
		<text x="174" y="142" text-anchor="middle" dominant-baseline="middle" font-family="Arial" font-size="10" fill="#000000">11</text>
	</g>
	<g>
		<ellipse cx="628" cy="202" rx="5" ry="5" fill="#FFFFFF" stroke-width="1.000000px" stroke="#000000" />
		<text x="618" y="202" text-anchor="middle" dominant-baseline="middle" font-family="Arial" font-size="10" fill="#000000">12</text>
	</g>
	<g>
		<ellipse cx="258" cy="340" rx="5" ry="5" fill="#FFFFFF" stroke-width="1.000000px" stroke="#000000" />
		<text x="248" y="340" text-anchor="middle" dominant-baseline="middle" font-family="Arial" font-size="10" fill="#000000">13</text>
	</g>
	<g>
		<ellipse cx="354" cy="264" rx="5" ry="5" fill="#FFFFFF" stroke-width="1.000000px" stroke="#000000" />
		<text x="344" y="264" text-anchor="middle" dominant-baseline="middle" font-family="Arial" font-size="10" fill="#000000">14</text>
	</g>
	<g>
		<ellipse cx="234" cy="182" rx="5" ry="5" fill="#FFFFFF" stroke-width="1.000000px" stroke="#000000" />
		<text x="224" y="182" text-anchor="middle" dominant-baseline="middle" font-family="Arial" font-size="10" fill="#000000">15</text>
	</g>
	<g>
		<ellipse cx="396" cy="224" rx="5" ry="5" fill="#FFFFFF" stroke-width="1.000000px" stroke="#000000" />
		<text x="386" y="224" text-anchor="middle" dominant-baseline="middle" font-family="Arial" font-size="10" fill="#000000">16</text>
	</g>
	<g>
		<ellipse cx="310" cy="306" rx="5" ry="5" fill="#FFFFFF" stroke-width="1.000000px" stroke="#000000" />
		<text x="300" y="306" text-anchor="middle" dominant-baseline="middle" font-family="Arial" font-size="10" fill="#000000">17</text>
	</g>
	<g>
		<ellipse cx="440" cy="476" rx="5" ry="5" fill="#FFFFFF" stroke-width="1.000000px" stroke="#000000" />
		<text x="430" y="476" text-anchor="middle" dominant-baseline="middle" font-family="Arial" font-size="10" fill="#000000">18</text>
	</g>
	<g>
		<ellipse cx="840" cy="194" rx="5" ry="5" fill="#FFFFFF" stroke-width="1.000000px" stroke="#000000" />
		<text x="830" y="194" text-anchor="middle" dominant-baseline="middle" font-family="Arial" font-size="10" fill="#000000">19</text>
	</g>
	<g>
		<ellipse cx="134" cy="102" rx="5" ry="5" fill="#FFFFFF" stroke-width="1.000000px" stroke="#000000" />
		<text x="124" y="102" text-anchor="middle" dominant-baseline="middle" font-family="Arial" font-size="10" fill="#000000">20</text>
	</g>
	<g>
		<ellipse cx="180" cy="188" rx="5" ry="5" fill="#FFFFFF" stroke-width="1.000000px" stroke="#000000" />
		<text x="170" y="188" text-anchor="middle" dominant-baseline="middle" font-family="Arial" font-size="10" fill="#000000">21</text>
	</g>
	<g>
		<ellipse cx="430" cy="272" rx="5" ry="5" fill="#FFFFFF" stroke-width="1.000000px" stroke="#000000" />
		<text x="420" y="272" text-anchor="middle" dominant-baseline="middle" font-family="Arial" font-size="10" fill="#000000">22</text>
	</g>
	<g>
		<ellipse cx="540" cy="282" rx="5" ry="5" fill="#FFFFFF" stroke-width="1.000000px" stroke="#000000" />
		<text x="530" y="282" text-anchor="middle" dominant-baseline="middle" font-family="Arial" font-size="10" fill="#000000">23</text>
	</g>
	<g>
		<ellipse cx="292" cy="230" rx="5" ry="5" fill="#FFFFFF" stroke-width="1.000000px" stroke="#000000" />
		<text x="282" y="230" text-anchor="middle" dominant-baseline="middle" font-family="Arial" font-size="10" fill="#000000">24</text>
	</g>
	<g>
		<ellipse cx="342" cy="204" rx="5" ry="5" fill="#FFFFFF" stroke-width="1.000000px" stroke="#000000" />
		<text x="332" y="204" text-anchor="middle" dominant-baseline="middle" font-family="Arial" font-size="10" fill="#000000">25</text>
	</g>
	<g>
		<ellipse cx="690" cy="188" rx="5" ry="5" fill="#FFFFFF" stroke-width="1.000000px" stroke="#000000" />
		<text x="680" y="188" text-anchor="middle" dominant-baseline="middle" font-family="Arial" font-size="10" fill="#000000">26</text>
	</g>
	<g>
		<ellipse cx="586" cy="312" rx="5" ry="5" fill="#FFFFFF" stroke-width="1.000000px" stroke="#000000" />
		<text x="576" y="312" text-anchor="middle" dominant-baseline="middle" font-family="Arial" font-size="10" fill="#000000">27</text>
	</g>
	<g>
		<ellipse cx="564" cy="222" rx="5" ry="5" fill="#FFFFFF" stroke-width="1.000000px" stroke="#000000" />
		<text x="554" y="222" text-anchor="middle" dominant-baseline="middle" font-family="Arial" font-size="10" fill="#000000">28</text>
	</g>
	<g>
		<ellipse cx="258" cy="280" rx="5" ry="5" fill="#FFFFFF" stroke-width="1.000000px" stroke="#000000" />
		<text x="248" y="280" text-anchor="middle" dominant-baseline="middle" font-family="Arial" font-size="10" fill="#000000">29</text>
	</g>
	<g>
		<ellipse cx="436" cy="338" rx="5" ry="5" fill="#FFFFFF" stroke-width="1.000000px" stroke="#000000" />
		<text x="426" y="338" text-anchor="middle" dominant-baseline="middle" font-family="Arial" font-size="10" fill="#000000">30</text>
	</g>
	<g>
		<ellipse cx="520" cy="476" rx="5" ry="5" fill="#FFFFFF" stroke-width="1.000000px" stroke="#000000" />
		<text x="510" y="476" text-anchor="middle" dominant-baseline="middle" font-family="Arial" font-size="10" fill="#000000">31</text>
	</g>
	<g>
		<ellipse cx="722" cy="86" rx="5" ry="5" fill="#FFFFFF" stroke-width="1.000000px" stroke="#000000" />
		<text x="712" y="86" text-anchor="middle" dominant-baseline="middle" font-family="Arial" font-size="10" fill="#000000">32</text>
	</g>
	<g>
		<ellipse cx="82" cy="88" rx="5" ry="5" fill="#FFFFFF" stroke-width="1.000000px" stroke="#000000" />
		<text x="72" y="88" text-anchor="middle" dominant-baseline="middle" font-family="Arial" font-size="10" fill="#000000">33</text>
	</g>
	<g>
		<ellipse cx="466" cy="314" rx="5" ry="5" fill="#FFFFFF" stroke-width="1.000000px" stroke="#000000" />
		<text x="456" y="314" text-anchor="middle" dominant-baseline="middle" font-family="Arial" font-size="10" fill="#000000">34</text>
	</g>
	<g>
		<ellipse cx="600" cy="476" rx="5" ry="5" fill="#FFFFFF" stroke-width="1.000000px" stroke="#000000" />
		<text x="590" y="476" text-anchor="middle" dominant-baseline="middle" font-family="Arial" font-size="10" fill="#000000">35</text>
	</g>
	<g>
		<ellipse cx="132" cy="50" rx="5" ry="5" fill="#FFFFFF" stroke-width="1.000000px" stroke="#000000" />
		<text x="122" y="50" text-anchor="middle" dominant-baseline="middle" font-family="Arial" font-size="10" fill="#000000">36</text>
	</g>
	<g>
		<ellipse cx="710" cy="136" rx="5" ry="5" fill="#FFFFFF" stroke-width="1.000000px" stroke="#000000" />
		<text x="700" y="136" text-anchor="middle" dominant-baseline="middle" font-family="Arial" font-size="10" fill="#000000">37</text>
	</g>
	<g>
		<ellipse cx="498" cy="246" rx="5" ry="5" fill="#FFFFFF" stroke-width="1.000000px" stroke="#000000" />
		<text x="488" y="246" text-anchor="middle" dominant-baseline="middle" font-family="Arial" font-size="10" fill="#000000">38</text>
	</g>
	<g>
		<ellipse cx="680" cy="476" rx="5" ry="5" fill="#FFFFFF" stroke-width="1.000000px" stroke="#000000" />
		<text x="670" y="476" text-anchor="middle" dominant-baseline="middle" font-family="Arial" font-size="10" fill="#000000">39</text>
	</g>
	<g>
		<ellipse cx="40" cy="64" rx="5" ry="5" fill="#FFFFFF" stroke-width="1.000000px" stroke="#000000" />
		<text x="30" y="64" text-anchor="middle" dominant-baseline="middle" font-family="Arial" font-size="10" fill="#000000">40</text>
	</g>
	<g>
		<ellipse cx="486" cy="276" rx="5" ry="5" fill="#FFFFFF" stroke-width="1.000000px" stroke="#000000" />
		<text x="476" y="276" text-anchor="middle" dominant-baseline="middle" font-family="Arial" font-size="10" fill="#000000">41</text>
	</g>
	<g>
		<ellipse cx="404" cy="322" rx="5" ry="5" fill="#FFFFFF" stroke-width="1.000000px" stroke="#000000" />
		<text x="394" y="322" text-anchor="middle" dominant-baseline="middle" font-family="Arial" font-size="10" fill="#000000">42</text>
	</g>
	<g>
		<ellipse cx="440" cy="396" rx="5" ry="5" fill="#FFFFFF" stroke-width="1.000000px" stroke="#000000" />
		<text x="430" y="396" text-anchor="middle" dominant-baseline="middle" font-family="Arial" font-size="10" fill="#000000">43</text>
	</g>
	<g>
		<ellipse cx="760" cy="476" rx="5" ry="5" fill="#FFFFFF" stroke-width="1.000000px" stroke="#000000" />
		<text x="750" y="476" text-anchor="middle" dominant-baseline="middle" font-family="Arial" font-size="10" fill="#000000">44</text>
	</g>
</svg>
