<?xml version="1.0"?>
<svg xmlns="http://www.w3.org/2000/svg" xmlns:xlink="http://www.w3.org/1999/xlink" xmlns:ev="http://www.w3.org/2001/xml-events" version="1.1" baseProfile="full" viewBox="31.5 31.5 189 189">
	<g>
		<g>
			<path fill="none" d=" M38,92 L88,106" stroke="#FF0000" stroke-width="0.400000px" />
		</g>
		<g>
			<path fill="none" d=" M178,214 L156,166" stroke="#FF0000" stroke-width="0.400000px" />
		</g>
		<g>
			<path fill="none" d=" M214,38 L176,76" stroke="#FF0000" stroke-width="0.400000px" />
		</g>
		<g>
			<path fill="none" d=" M176,76 L142,116" stroke="#FF0000" stroke-width="0.400000px" />
		</g>
		<g>
			<path fill="none" d=" M156,166 L142,116" stroke="#FF0000" stroke-width="0.400000px" />
		</g>
		<g>
			<path fill="none" d=" M88,106 L142,116" stroke="#FF0000" stroke-width="0.400000px" />
		</g>
	</g>
	<g>
		<rect x="33" y="87" width="10" height="10" fill="#FFFFFF" stroke-width="1.000000px" stroke="#000000" />
		<text x="28" y="92" text-anchor="middle" dominant-baseline="middle" font-family="Arial" font-size="10" fill="#000000">0</text>
	</g>
	<g>
		<rect x="173" y="209" width="10" height="10" fill="#FFFFFF" stroke-width="1.000000px" stroke="#000000" />
		<text x="168" y="214" text-anchor="middle" dominant-baseline="middle" font-family="Arial" font-size="10" fill="#000000">1</text>
	</g>
	<g>
		<rect x="209" y="33" width="10" height="10" fill="#FFFFFF" stroke-width="1.000000px" stroke="#000000" />
		<text x="204" y="38" text-anchor="middle" dominant-baseline="middle" font-family="Arial" font-size="10" fill="#000000">2</text>
	</g>
	<g>
		<rect x="137" y="111" width="10" height="10" fill="#FFFFFF" stroke-width="1.000000px" stroke="#000000" />
		<text x="132" y="116" text-anchor="middle" dominant-baseline="middle" font-family="Arial" font-size="10" fill="#000000">3</text>
	</g>
	<g>
		<ellipse cx="176" cy="76" rx="3" ry="3" fill="#00FF00" stroke-width="1.000000px" stroke="#000000" />
		<text x="166" y="76" text-anchor="middle" dominant-baseline="middle" font-family="Arial" font-size="10" fill="#000000">4</text>
	</g>
	<g>
		<ellipse cx="156" cy="166" rx="3" ry="3" fill="#00FF00" stroke-width="1.000000px" stroke="#000000" />
		<text x="146" y="166" text-anchor="middle" dominant-baseline="middle" font-family="Arial" font-size="10" fill="#000000">5</text>
	</g>
	<g>
		<ellipse cx="88" cy="106" rx="3" ry="3" fill="#00FF00" stroke-width="1.000000px" stroke="#000000" />
		<text x="78" y="106" text-anchor="middle" dominant-baseline="middle" font-family="Arial" font-size="10" fill="#000000">6</text>
	</g>
</svg>
