<?xml version="1.0"?>
<svg xmlns="http://www.w3.org/2000/svg" xmlns:xlink="http://www.w3.org/1999/xlink" xmlns:ev="http://www.w3.org/2001/xml-events" version="1.1" baseProfile="full" viewBox="33.5 33.5 275 267">
	<g>
		<g>
			<path fill="none" d=" M272,172 L226,156" stroke="#FF0000" stroke-width="0.400000px" />
		</g>
		<g>
			<path fill="none" d=" M230,46 L202,90" stroke="#FF0000" stroke-width="0.400000px" />
		</g>
		<g>
			<path fill="none" d=" M166,40 L168,88" stroke="#FF0000" stroke-width="0.400000px" />
		</g>
		<g>
			<path fill="none" d=" M70,144 L118,146" stroke="#FF0000" stroke-width="0.400000px" />
		</g>
		<g>
			<path fill="none" d=" M204,40 L186,86" stroke="#FF0000" stroke-width="0.400000px" />
		</g>
		<g>
			<path fill="none" d=" M122,48 L146,90" stroke="#FF0000" stroke-width="0.400000px" />
		</g>
		<g>
			<path fill="none" d=" M68,108 L116,126" stroke="#FF0000" stroke-width="0.400000px" />
		</g>
		<g>
			<path fill="none" d=" M262,202 L218,174" stroke="#FF0000" stroke-width="0.400000px" />
		</g>
		<g>
			<path fill="none" d=" M76,80 L120,110" stroke="#FF0000" stroke-width="0.400000px" />
		</g>
		<g>
			<path fill="none" d=" M122,236 L146,190" stroke="#FF0000" stroke-width="0.400000px" />
		</g>
		<g>
			<path fill="none" d=" M302,294 L278,270" stroke="#FF0000" stroke-width="0.400000px" />
		</g>
		<g>
			<path fill="none" d=" M244,236 L210,192" stroke="#FF0000" stroke-width="0.400000px" />
		</g>
		<g>
			<path fill="none" d=" M278,270 L244,236" stroke="#FF0000" stroke-width="0.400000px" />
		</g>
		<g>
			<path fill="none" d=" M94,62 L132,98" stroke="#FF0000" stroke-width="0.400000px" />
		</g>
		<g>
			<path fill="none" d=" M250,62 L214,100" stroke="#FF0000" stroke-width="0.400000px" />
		</g>
		<g>
			<path fill="none" d=" M264,90 L222,116" stroke="#FF0000" stroke-width="0.400000px" />
		</g>
		<g>
			<path fill="none" d=" M210,234 L190,192" stroke="#FF0000" stroke-width="0.400000px" />
		</g>
		<g>
			<path fill="none" d=" M272,132 L226,136" stroke="#FF0000" stroke-width="0.400000px" />
		</g>
		<g>
			<path fill="none" d=" M40,290 L60,268" stroke="#FF0000" stroke-width="0.400000px" />
		</g>
		<g>
			<path fill="none" d=" M88,228 L128,188" stroke="#FF0000" stroke-width="0.400000px" />
		</g>
		<g>
			<path fill="none" d=" M60,268 L88,228" stroke="#FF0000" stroke-width="0.400000px" />
		</g>
		<g>
			<path fill="none" d=" M82,192 L124,166" stroke="#FF0000" stroke-width="0.400000px" />
		</g>
		<g>
			<path fill="none" d=" M154,242 L166,194" stroke="#FF0000" stroke-width="0.400000px" />
		</g>
		<g>
			<path fill="none" d=" M214,100 L170,142" stroke="#FF0000" stroke-width="0.400000px" />
		</g>
		<g>
			<path fill="none" d=" M222,116 L170,142" stroke="#FF0000" stroke-width="0.400000px" />
		</g>
		<g>
			<path fill="none" d=" M128,188 L170,142" stroke="#FF0000" stroke-width="0.400000px" />
		</g>
		<g>
			<path fill="none" d=" M146,190 L170,142" stroke="#FF0000" stroke-width="0.400000px" />
		</g>
		<g>
			<path fill="none" d=" M120,110 L170,142" stroke="#FF0000" stroke-width="0.400000px" />
		</g>
		<g>
			<path fill="none" d=" M166,194 L170,142" stroke="#FF0000" stroke-width="0.400000px" />
		</g>
		<g>
			<path fill="none" d=" M218,174 L170,142" stroke="#FF0000" stroke-width="0.400000px" />
		</g>
		<g>
			<path fill="none" d=" M116,126 L170,142" stroke="#FF0000" stroke-width="0.400000px" />
		</g>
		<g>
			<path fill="none" d=" M132,98 L170,142" stroke="#FF0000" stroke-width="0.400000px" />
		</g>
		<g>
			<path fill="none" d=" M146,90 L170,142" stroke="#FF0000" stroke-width="0.400000px" />
		</g>
		<g>
			<path fill="none" d=" M210,192 L170,142" stroke="#FF0000" stroke-width="0.400000px" />
		</g>
		<g>
			<path fill="none" d=" M186,86 L170,142" stroke="#FF0000" stroke-width="0.400000px" />
		</g>
		<g>
			<path fill="none" d=" M202,90 L170,142" stroke="#FF0000" stroke-width="0.400000px" />
		</g>
		<g>
			<path fill="none" d=" M118,146 L170,142" stroke="#FF0000" stroke-width="0.400000px" />
		</g>
		<g>
			<path fill="none" d=" M226,136 L170,142" stroke="#FF0000" stroke-width="0.400000px" />
		</g>
		<g>
			<path fill="none" d=" M168,88 L170,142" stroke="#FF0000" stroke-width="0.400000px" />
		</g>
		<g>
			<path fill="none" d=" M124,166 L170,142" stroke="#FF0000" stroke-width="0.400000px" />
		</g>
		<g>
			<path fill="none" d=" M226,156 L170,142" stroke="#FF0000" stroke-width="0.400000px" />
		</g>
		<g>
			<path fill="none" d=" M190,192 L170,142" stroke="#FF0000" stroke-width="0.400000px" />
		</g>
	</g>
	<g>
		<rect x="267" y="167" width="10" height="10" fill="#FFFFFF" stroke-width="1.000000px" stroke="#000000" />
		<text x="262" y="172" text-anchor="middle" dominant-baseline="middle" font-family="Arial" font-size="10" fill="#000000">66</text>
	</g>
	<g>
		<rect x="225" y="41" width="10" height="10" fill="#FFFFFF" stroke-width="1.000000px" stroke="#000000" />
		<text x="220" y="46" text-anchor="middle" dominant-baseline="middle" font-family="Arial" font-size="10" fill="#000000">107</text>
	</g>
	<g>
		<rect x="161" y="35" width="10" height="10" fill="#FFFFFF" stroke-width="1.000000px" stroke="#000000" />
		<text x="156" y="40" text-anchor="middle" dominant-baseline="middle" font-family="Arial" font-size="10" fill="#000000">113</text>
	</g>
	<g>
		<rect x="65" y="139" width="10" height="10" fill="#FFFFFF" stroke-width="1.000000px" stroke="#000000" />
		<text x="60" y="144" text-anchor="middle" dominant-baseline="middle" font-family="Arial" font-size="10" fill="#000000">139</text>
	</g>
	<g>
		<rect x="199" y="35" width="10" height="10" fill="#FFFFFF" stroke-width="1.000000px" stroke="#000000" />
		<text x="194" y="40" text-anchor="middle" dominant-baseline="middle" font-family="Arial" font-size="10" fill="#000000">102</text>
	</g>
	<g>
		<rect x="117" y="43" width="10" height="10" fill="#FFFFFF" stroke-width="1.000000px" stroke="#000000" />
		<text x="112" y="48" text-anchor="middle" dominant-baseline="middle" font-family="Arial" font-size="10" fill="#000000">98</text>
	</g>
	<g>
		<rect x="63" y="103" width="10" height="10" fill="#FFFFFF" stroke-width="1.000000px" stroke="#000000" />
		<text x="58" y="108" text-anchor="middle" dominant-baseline="middle" font-family="Arial" font-size="10" fill="#000000">147</text>
	</g>
	<g>
		<rect x="257" y="197" width="10" height="10" fill="#FFFFFF" stroke-width="1.000000px" stroke="#000000" />
		<text x="252" y="202" text-anchor="middle" dominant-baseline="middle" font-family="Arial" font-size="10" fill="#000000">76</text>
	</g>
	<g>
		<rect x="71" y="75" width="10" height="10" fill="#FFFFFF" stroke-width="1.000000px" stroke="#000000" />
		<text x="66" y="80" text-anchor="middle" dominant-baseline="middle" font-family="Arial" font-size="10" fill="#000000">143</text>
	</g>
	<g>
		<rect x="117" y="231" width="10" height="10" fill="#FFFFFF" stroke-width="1.000000px" stroke="#000000" />
		<text x="112" y="236" text-anchor="middle" dominant-baseline="middle" font-family="Arial" font-size="10" fill="#000000">138</text>
	</g>
	<g>
		<rect x="297" y="289" width="10" height="10" fill="#FFFFFF" stroke-width="1.000000px" stroke="#000000" />
		<text x="292" y="294" text-anchor="middle" dominant-baseline="middle" font-family="Arial" font-size="10" fill="#000000">105</text>
	</g>
	<g>
		<rect x="239" y="231" width="10" height="10" fill="#FFFFFF" stroke-width="1.000000px" stroke="#000000" />
		<text x="234" y="236" text-anchor="middle" dominant-baseline="middle" font-family="Arial" font-size="10" fill="#000000">11</text>
	</g>
	<g>
		<ellipse cx="278" cy="270" rx="3" ry="3" fill="#00FF00" stroke-width="1.000000px" stroke="#000000" />
		<text x="268" y="270" text-anchor="middle" dominant-baseline="middle" font-family="Arial" font-size="10" fill="#000000">97</text>
	</g>
	<g>
		<rect x="89" y="57" width="10" height="10" fill="#FFFFFF" stroke-width="1.000000px" stroke="#000000" />
		<text x="84" y="62" text-anchor="middle" dominant-baseline="middle" font-family="Arial" font-size="10" fill="#000000">108</text>
	</g>
	<g>
		<rect x="245" y="57" width="10" height="10" fill="#FFFFFF" stroke-width="1.000000px" stroke="#000000" />
		<text x="240" y="62" text-anchor="middle" dominant-baseline="middle" font-family="Arial" font-size="10" fill="#000000">75</text>
	</g>
	<g>
		<rect x="259" y="85" width="10" height="10" fill="#FFFFFF" stroke-width="1.000000px" stroke="#000000" />
		<text x="254" y="90" text-anchor="middle" dominant-baseline="middle" font-family="Arial" font-size="10" fill="#000000">104</text>
	</g>
	<g>
		<rect x="205" y="229" width="10" height="10" fill="#FFFFFF" stroke-width="1.000000px" stroke="#000000" />
		<text x="200" y="234" text-anchor="middle" dominant-baseline="middle" font-family="Arial" font-size="10" fill="#000000">148</text>
	</g>
	<g>
		<rect x="267" y="127" width="10" height="10" fill="#FFFFFF" stroke-width="1.000000px" stroke="#000000" />
		<text x="262" y="132" text-anchor="middle" dominant-baseline="middle" font-family="Arial" font-size="10" fill="#000000">85</text>
	</g>
	<g>
		<rect x="35" y="285" width="10" height="10" fill="#FFFFFF" stroke-width="1.000000px" stroke="#000000" />
		<text x="30" y="290" text-anchor="middle" dominant-baseline="middle" font-family="Arial" font-size="10" fill="#000000">136</text>
	</g>
	<g>
		<rect x="83" y="223" width="10" height="10" fill="#FFFFFF" stroke-width="1.000000px" stroke="#000000" />
		<text x="78" y="228" text-anchor="middle" dominant-baseline="middle" font-family="Arial" font-size="10" fill="#000000">19</text>
	</g>
	<g>
		<ellipse cx="60" cy="268" rx="3" ry="3" fill="#00FF00" stroke-width="1.000000px" stroke="#000000" />
		<text x="50" y="268" text-anchor="middle" dominant-baseline="middle" font-family="Arial" font-size="10" fill="#000000">94</text>
	</g>
	<g>
		<rect x="77" y="187" width="10" height="10" fill="#FFFFFF" stroke-width="1.000000px" stroke="#000000" />
		<text x="72" y="192" text-anchor="middle" dominant-baseline="middle" font-family="Arial" font-size="10" fill="#000000">48</text>
	</g>
	<g>
		<rect x="149" y="237" width="10" height="10" fill="#FFFFFF" stroke-width="1.000000px" stroke="#000000" />
		<text x="144" y="242" text-anchor="middle" dominant-baseline="middle" font-family="Arial" font-size="10" fill="#000000">126</text>
	</g>
	<g>
		<rect x="165" y="137" width="10" height="10" fill="#FFFFFF" stroke-width="1.000000px" stroke="#000000" />
		<text x="160" y="142" text-anchor="middle" dominant-baseline="middle" font-family="Arial" font-size="10" fill="#000000">149</text>
	</g>
	<g>
		<ellipse cx="214" cy="100" rx="3" ry="3" fill="#00FF00" stroke-width="1.000000px" stroke="#000000" />
		<text x="204" y="100" text-anchor="middle" dominant-baseline="middle" font-family="Arial" font-size="10" fill="#000000">37</text>
	</g>
	<g>
		<ellipse cx="222" cy="116" rx="3" ry="3" fill="#00FF00" stroke-width="1.000000px" stroke="#000000" />
		<text x="212" y="116" text-anchor="middle" dominant-baseline="middle" font-family="Arial" font-size="10" fill="#000000">27</text>
	</g>
	<g>
		<ellipse cx="128" cy="188" rx="3" ry="3" fill="#00FF00" stroke-width="1.000000px" stroke="#000000" />
		<text x="118" y="188" text-anchor="middle" dominant-baseline="middle" font-family="Arial" font-size="10" fill="#000000">17</text>
	</g>
	<g>
		<ellipse cx="146" cy="190" rx="3" ry="3" fill="#00FF00" stroke-width="1.000000px" stroke="#000000" />
		<text x="136" y="190" text-anchor="middle" dominant-baseline="middle" font-family="Arial" font-size="10" fill="#000000">109</text>
	</g>
	<g>
		<ellipse cx="120" cy="110" rx="3" ry="3" fill="#00FF00" stroke-width="1.000000px" stroke="#000000" />
		<text x="110" y="110" text-anchor="middle" dominant-baseline="middle" font-family="Arial" font-size="10" fill="#000000">14</text>
	</g>
	<g>
		<ellipse cx="166" cy="194" rx="3" ry="3" fill="#00FF00" stroke-width="1.000000px" stroke="#000000" />
		<text x="156" y="194" text-anchor="middle" dominant-baseline="middle" font-family="Arial" font-size="10" fill="#000000">6</text>
	</g>
	<g>
		<ellipse cx="218" cy="174" rx="3" ry="3" fill="#00FF00" stroke-width="1.000000px" stroke="#000000" />
		<text x="208" y="174" text-anchor="middle" dominant-baseline="middle" font-family="Arial" font-size="10" fill="#000000">58</text>
	</g>
	<g>
		<ellipse cx="116" cy="126" rx="3" ry="3" fill="#00FF00" stroke-width="1.000000px" stroke="#000000" />
		<text x="106" y="126" text-anchor="middle" dominant-baseline="middle" font-family="Arial" font-size="10" fill="#000000">130</text>
	</g>
	<g>
		<ellipse cx="132" cy="98" rx="3" ry="3" fill="#00FF00" stroke-width="1.000000px" stroke="#000000" />
		<text x="122" y="98" text-anchor="middle" dominant-baseline="middle" font-family="Arial" font-size="10" fill="#000000">20</text>
	</g>
	<g>
		<ellipse cx="146" cy="90" rx="3" ry="3" fill="#00FF00" stroke-width="1.000000px" stroke="#000000" />
		<text x="136" y="90" text-anchor="middle" dominant-baseline="middle" font-family="Arial" font-size="10" fill="#000000">73</text>
	</g>
	<g>
		<ellipse cx="210" cy="192" rx="3" ry="3" fill="#00FF00" stroke-width="1.000000px" stroke="#000000" />
		<text x="200" y="192" text-anchor="middle" dominant-baseline="middle" font-family="Arial" font-size="10" fill="#000000">36</text>
	</g>
	<g>
		<ellipse cx="186" cy="86" rx="3" ry="3" fill="#00FF00" stroke-width="1.000000px" stroke="#000000" />
		<text x="176" y="86" text-anchor="middle" dominant-baseline="middle" font-family="Arial" font-size="10" fill="#000000">62</text>
	</g>
	<g>
		<ellipse cx="202" cy="90" rx="3" ry="3" fill="#00FF00" stroke-width="1.000000px" stroke="#000000" />
		<text x="192" y="90" text-anchor="middle" dominant-baseline="middle" font-family="Arial" font-size="10" fill="#000000">71</text>
	</g>
	<g>
		<ellipse cx="118" cy="146" rx="3" ry="3" fill="#00FF00" stroke-width="1.000000px" stroke="#000000" />
		<text x="108" y="146" text-anchor="middle" dominant-baseline="middle" font-family="Arial" font-size="10" fill="#000000">46</text>
	</g>
	<g>
		<ellipse cx="226" cy="136" rx="3" ry="3" fill="#00FF00" stroke-width="1.000000px" stroke="#000000" />
		<text x="216" y="136" text-anchor="middle" dominant-baseline="middle" font-family="Arial" font-size="10" fill="#000000">16</text>
	</g>
	<g>
		<ellipse cx="168" cy="88" rx="3" ry="3" fill="#00FF00" stroke-width="1.000000px" stroke="#000000" />
		<text x="158" y="88" text-anchor="middle" dominant-baseline="middle" font-family="Arial" font-size="10" fill="#000000">63</text>
	</g>
	<g>
		<ellipse cx="124" cy="166" rx="3" ry="3" fill="#00FF00" stroke-width="1.000000px" stroke="#000000" />
		<text x="114" y="166" text-anchor="middle" dominant-baseline="middle" font-family="Arial" font-size="10" fill="#000000">24</text>
	</g>
	<g>
		<ellipse cx="226" cy="156" rx="3" ry="3" fill="#00FF00" stroke-width="1.000000px" stroke="#000000" />
		<text x="216" y="156" text-anchor="middle" dominant-baseline="middle" font-family="Arial" font-size="10" fill="#000000">43</text>
	</g>
	<g>
		<ellipse cx="190" cy="192" rx="3" ry="3" fill="#00FF00" stroke-width="1.000000px" stroke="#000000" />
		<text x="180" y="192" text-anchor="middle" dominant-baseline="middle" font-family="Arial" font-size="10" fill="#000000">42</text>
	</g>
</svg>
